<svg width="22" height="22" viewBox="0 0 22 22" fill="none" xmlns="http://www.w3.org/2000/svg">
    <g id="crown">
        <path d="M15.496,17.648 L6.504,17.648 C5.323,17.648 4.319,16.843 4.063,15.69 L2.687,9.495 C2.614,9.171 2.742,8.834 3.013,8.639 C3.284,8.445 3.643,8.429 3.929,8.6 L7.324,10.637 L10.255,4.775 C10.537,4.211 11.463,4.211 11.745,4.775 L14.676,10.637 L18.071,8.6 C18.358,8.429 18.716,8.444 18.987,8.639 C19.258,8.834 19.386,9.171 19.313,9.495 L17.937,15.69 C17.681,16.843 16.677,17.648 15.496,17.648 z M4.734,11.027 L5.69,15.329 C5.775,15.713 6.11,15.982 6.504,15.982 L15.496,15.982 C15.89,15.982 16.225,15.713 16.31,15.329 L17.266,11.027 L14.762,12.529 C14.562,12.648 14.323,12.681 14.1,12.615 C13.878,12.55 13.692,12.395 13.588,12.188 L11,7.012 L8.412,12.188 C8.308,12.395 8.122,12.55 7.9,12.615 C7.677,12.681 7.437,12.648 7.238,12.529 L4.734,11.027 z" fill="currentColor" id="Vector"/>
    </g>
</svg>
