<?xml version="1.0" encoding="UTF-8"?>
<svg width="500" height="500" viewBox="0 0 500 500" xmlns="http://www.w3.org/2000/svg">
    <style>
        path {
            fill: #CBE9FF;
        }
        rect {
            fill: #143349;
        }
        @media (prefers-color-scheme: dark) {
            path {
                fill: #143349;
            }
            rect {
                fill: #CBE9FF;
            }
        }
    </style>
    <rect width="500" height="500" rx="39" fill="#CBE9FF"/>
    <path fill-rule="evenodd" clip-rule="evenodd" d="M161.38 197.317C154.655 197.317 149.203 202.763 149.203 209.481C149.203 216.199 154.655 221.645 161.38 221.645H208.32C209.948 221.645 211.27 222.964 211.27 224.595V236.089H149.998V325.512H219.506C228.401 325.512 235.612 318.308 235.612 309.423V255.975H235.624V224.595C235.624 209.532 223.403 197.317 208.32 197.317H161.38ZM174.401 260.465H211.209V301.135H174.401V260.465Z" fill="currentColor"/>
    <path fill-rule="evenodd" clip-rule="evenodd" d="M287.73 286.625V158.456H312.133V193.798L346.844 161.876C351.801 157.317 359.52 157.635 364.084 162.587C368.648 167.54 368.329 175.25 363.372 179.81L327.176 213.098L346.581 229.869C359.533 241.063 366.977 257.328 366.977 274.437V286.626H342.574V274.437C342.574 264.405 338.209 254.868 330.614 248.304L312.133 232.331V286.625H287.73Z" fill="currentColor"/>
    <path d="M111.035 142.914C111.035 130.259 121.305 120 133.974 120H383.061C395.73 120 406 130.259 406 142.914V341.247C406 353.902 395.73 364.161 383.061 364.161H237.379L148.947 407.297C131.439 415.837 111.028 403.103 111.028 383.64V340.177L111.035 340.177V339.778H135.438V339.784H381.597V144.377H161.46V144.374L111.035 144.374V142.914Z" fill="currentColor"/>
    <path d="M111.035 183.105H62.2014C55.4627 183.105 50 177.649 50 170.917C50 164.186 55.4627 158.729 62.2014 158.729H274.349V158.943H274.624L274.624 301.213H355.166C361.905 301.213 367.367 306.67 367.367 313.402C367.367 320.133 361.905 325.59 355.166 325.59H250.221L250.221 183.105H135.438V325.152H111.035V183.105Z" fill="currentColor"/>
</svg>