<?xml version="1.0" encoding="UTF-8"?>
<svg width="600" height="400" viewBox="0 0 600 400" xmlns="http://www.w3.org/2000/svg">
 <path d="m207.03 90.379c-8.037-18.963 1.72-43.716 20.369-51.674 18.648-7.9579 42.712 2.3619 50.236 21.545 2.471 6.3028 3.417 13.412 7.517 18.755 7.528 9.8143 22.48 9.4895 33.685 4.5633s20.77-13.357 32.261-17.537c11.49-4.1801 26.796-2.3264 32.347 8.7802 5.234 10.472-0.461 24.354 5.531 34.392 6.006 10.057 20.149 10.552 31.349 7.778 11.2-2.772 22.851-7.611 33.839-4.056 20.664 6.687 22.611 36.227 16.091 57.369-2.82 9.143-6.484 18.868-3.678 28.015 2.535 8.266 9.749 13.944 14.839 20.869 9.274 12.623 11.226 30.473 4.905 44.879-6.318 14.406-20.652 24.783-36.036 26.089-10.472 0.89-21.604-2.018-31.185 2.393-15.697 7.23-17.836 28.426-23.05 45.208-8.436 27.15-37.079 50.487-63.235 40.699-18.877-7.064-32.176-29.255-52.266-28.621-25.924 0.817-42.551 39.865-67.721 33.467-26.062-6.625-20.65-50.709-42.775-66.278-10.968-7.718-25.944-6.207-37.82-12.359-14.122-7.313-21.239-24.372-21.809-40.55-0.569-16.18 4.194-31.98 8.143-47.659 1.468-5.833 2.828-12.007 1.243-17.808-2.282-8.347-9.923-13.712-15.604-20.143-11.586-13.115-15.362-32.928-9.4389-49.533 5.9229-16.605 21.285-29.277 38.406-31.68 13.203-1.8536 26.606 1.9814 39.895 0.9798 13.291-1.0015 28.056-9.802 28.227-23.431" clip-rule="evenodd" fill="#173952" fill-rule="evenodd"/>
 <path d="m142.45 120.9c0.979-0.28 1.696 0.665 1.593 1.489 0.189 0.189 0.333 0.418 0.421 0.67 2.999 8.519 6.387 16.885 10.164 25.097 3.758-10 7.571-19.998 11.722-29.838 0.79-1.875 1.708-3.132 3.79-3.519 2.696-0.503 5.601-0.441 8.337-0.56 4.454-0.193 8.908-0.196 13.368-0.085-3.041-2.631-6.173-5.168-9.394-7.578-2.01-1.503-4.065-2.98-6.123-4.456-1.215-0.866-2.521-1.645-2.564-3.2943-0.049-1.9621 1.216-4.2792 1.84-6.1118 0.893-2.6235 1.81-5.2385 2.753-7.8453 1.393-3.8483 2.767-7.7308 4.395-11.502l-13.768 10.102c-2.555 1.8787-5.117 3.7534-7.685 5.624-1.714 1.2486-3.936 3.7264-6.234 3.7019-2.297-0.0245-4.674-2.4492-6.479-3.6371l-7.87-5.1747c-3.905-2.5647-7.812-5.1288-11.72-7.6924 1.823 5.289 3.645 10.579 5.464 15.87 1.573 4.5753 3.841 10.397 2.4 15.262l-13.746 19.135c-0.656 0.67-1.379 1.27-2.159 1.79 7.146-2.569 14.232-5.382 21.495-7.448z" fill="#FEF58A"/>
 <path d="m148.08 84.812 3.484 2.3036c1.048 0.6885 2.396 1.9954 3.632 1.9478 1.235-0.0476 2.945-1.8111 3.982-2.5731l3.41-2.5093 1.516-1.1112c-6.202-1.2856-12.364-3.2115-18.453-4.8287-3.487-0.9246-6.971-1.8502-10.454-2.777-0.86-0.2304-1.717-0.424-2.575-0.5984 2.82 1.8573 5.64 3.7067 8.462 5.5481l6.996 4.5982z" fill="#FBF6BC"/>
 <path d="m179.3 91.564c-0.6 1.7545-2.173 4.592-2.135 6.4042 0.032 1.7047 3.37 3.2743 4.831 4.3603 1.727 1.286 3.415 2.621 5.109 3.953 3.291 2.625 6.512 5.332 9.661 8.12 7.132 3.356 12.806 8.9 18.061 14.747 11.263 12.522 20.874 26.691 27.672 42.142 3.341 7.53 5.959 15.36 7.817 23.386 0.663 2.915 1.305 5.931 1.756 8.974 0.334-1.829 0.625-3.664 0.843-5.521 0.658-5.764 0.894-11.569 0.707-17.367-0.322-10.667-1.96-21.261-4.555-31.616-2.77-11.19-6.307-22.496-12.302-32.425-6.387-10.608-15.112-19.618-24.543-27.556-7.892-6.6689-16.628-12.271-25.981-16.662-0.04 0.0755-0.084 0.1482-0.133 0.2176-1.411 4.1933-3.073 8.3073-4.57 12.47-0.763 2.1177-1.509 4.2416-2.238 6.3719z" fill="#FBF6BC"/>
 <path d="m232.77 159.55c-5.009-8.768-10.834-17.045-17.396-24.72-5.637-6.619-11.69-13.189-19.316-17.473-5.195-0.174-10.395-0.125-15.583 0.089-2.512 0.104-5.026 0.238-7.533 0.423l-0.18 0.012c7.226 3.769 13.879 9.342 19.851 14.65 6.373 5.661 12.327 11.775 18.211 17.94 6.321 6.624 12.546 13.353 18.209 20.559 8.846 11.255 16.427 23.886 20.126 37.758-0.374-7.356-2.311-14.784-4.406-21.668-2.96-9.606-6.979-18.853-11.983-27.57z" fill="#FBF6BC"/>
 <path d="m124.75 130.81c3.636 0.345 7.24 0.98 10.776 1.898 3.028 0.744 6.832 1.383 10.076 2.782-1.483-3.71-2.897-7.44-4.243-11.191-5.318 2.56-10.955 4.601-16.609 6.511z" fill="#FBF6BC"/>
 <path d="m188.59 133.2c-6-5.238-12.417-9.498-18.971-13.91-0.167 0.276-0.312 0.564-0.434 0.863-0.46 1.115-0.903 2.238-1.354 3.355-3.827 9.502-7.537 19.048-11.133 28.637 3.642 2.038 7.742 3.069 11.658 4.487 4.382 1.587 8.679 3.421 12.881 5.432 8.739 4.189 17.051 9.222 25.058 14.668 14.11 9.596 29.125 20.128 39.737 33.829-1.811-6.896-4.467-13.542-7.908-19.786-8.361-15.306-20.345-28.207-32.289-40.767-5.544-5.813-11.204-11.544-17.245-16.808z" fill="#FBF6BC"/>
 <path d="m115.55 134.29c0.49 0.011 1.305-0.027 1.982-0.075 5.53-0.411 10.855 0.224 16.244 1.485 4.789 1.117 9.302 2.324 13.703 4.371 1.856 4.449 3.812 8.856 5.868 13.222 0.093 0.22 0.242 0.411 0.433 0.555 0.19 0.144 0.416 0.235 0.653 0.264 3.008 2.449 6.741 3.49 10.418 4.772 4.572 1.602 9.055 3.448 13.429 5.53 8.444 4.075 16.579 8.763 24.338 14.026 8.078 5.424 15.954 11.23 23.496 17.385 8.141 6.647 15.755 13.963 21.493 22.834 0.685 1.062 1.961 0.926 2.667 0.263 0.198 0.067 0.408 0.089 0.616 0.064 0.207-0.025 0.406-0.096 0.583-0.208 0.176-0.112 0.326-0.261 0.437-0.438s0.182-0.376 0.206-0.584c0.035-0.183 0.062-0.367 0.094-0.549 0.086-0.121 0.157-0.251 0.213-0.389 3.883-9.981 4.836-21.486 4.822-32.113-0.017-10.957-1.475-21.892-3.889-32.591-2.6-11.489-6.028-23.2-11.609-33.631-5.986-11.185-14.62-20.743-24.117-29.073s-20.493-16.95-32.827-20.517c-0.104-0.0293-0.211-0.0443-0.319-0.0444-0.22-0.1004-0.462-0.1434-0.704-0.125-0.241 0.0184-0.474 0.0975-0.677 0.2301l-13.664 10.004-2.162 1.5869c-7.018-2.5462-14.512-4.178-21.706-6.1128-3.613-0.9849-7.232-1.9812-10.875-2.9333-2.913-0.7685-6.206-1.7859-9.218-1.1046-0.205 0.0469-0.397 0.1399-0.561 0.272s-0.295 0.2998-0.384 0.4904c-0.173 0.1923-0.293 0.4266-0.347 0.6796s-0.041 0.5158 0.038 0.7621c2.211 6.4656 4.413 12.931 6.606 19.397 1.734 5.0867 4.475 11.178 1.129 16.186l-17.49 23.61c-0.115 0.934 0.194 2.471 1.081 2.499zm19.979-1.584c-3.536-0.919-7.139-1.554-10.776-1.899 5.646-1.905 11.292-3.951 16.609-6.511 1.352 3.756 2.766 7.486 4.243 11.192-3.238-1.392-7.048-2.039-10.076-2.782zm102.59 58.058c3.441 6.245 6.097 12.891 7.908 19.787-10.604-13.706-25.627-24.233-39.737-33.83-8.007-5.445-16.322-10.476-25.058-14.668-4.205-2.009-8.499-3.845-12.881-5.431-3.917-1.419-8.016-2.45-11.658-4.487 3.599-9.584 7.31-19.13 11.133-28.638 0.451-1.116 0.894-2.24 1.354-3.354 0.121-0.299 0.267-0.588 0.434-0.863 6.554 4.412 12.971 8.671 18.971 13.91 6.051 5.28 11.703 10.997 17.237 16.812 11.948 12.55 23.936 25.457 32.297 40.762zm11.035 18.02c-3.699-13.873-11.277-26.499-20.126-37.759-5.678-7.198-11.888-13.935-18.209-20.559-5.884-6.165-11.838-12.279-18.203-17.945-5.97-5.305-12.625-10.88-19.85-14.65l0.179-0.012c2.511-0.186 5.021-0.319 7.534-0.423 5.199-0.22 10.388-0.263 15.58-0.088 7.629 4.283 13.682 10.853 19.319 17.472 6.562 7.676 12.386 15.952 17.395 24.72 5.005 8.717 9.024 17.964 11.984 27.57 2.086 6.889 4.009 14.325 4.397 21.674zm-63.048-136.06c0.05-0.0693 0.094-0.1421 0.134-0.2176 9.353 4.3907 18.088 9.9926 25.981 16.662 9.43 7.9377 18.156 16.948 24.543 27.556 5.984 9.935 9.521 21.241 12.311 32.442 2.576 10.346 4.214 20.941 4.547 31.601 0.187 5.799-0.049 11.603-0.707 17.367-0.218 1.857-0.509 3.692-0.842 5.521-0.451-3.042-1.093-6.059-1.757-8.974-1.858-8.026-4.475-15.856-7.817-23.386-6.797-15.451-16.402-29.608-27.671-42.142-5.256-5.847-10.944-11.383-18.066-14.756-3.14-2.801-6.36-5.508-9.662-8.12-1.685-1.337-3.381-2.667-5.109-3.952-1.46-1.086-4.798-2.6561-4.831-4.3608-0.038-1.8122 1.535-4.6496 2.136-6.4041 0.73-2.1314 1.476-4.2554 2.238-6.3719 1.5-4.1574 3.162-8.2713 4.572-12.465zm-50.904 2.5372c3.484 0.9336 6.969 1.8593 10.454 2.777 6.09 1.6173 12.251 3.5432 18.453 4.8288l-1.515 1.1111-3.408 2.5077c-1.036 0.762-2.726 2.5287-3.982 2.5731-1.257 0.0444-2.584-1.2593-3.632-1.9478l-3.498-2.2954-6.997-4.5982c-2.819-1.8425-5.634-3.6952-8.444-5.5579 0.854 0.1687 1.715 0.368 2.569 0.6016zm0.439 34.372c1.309-1.732 1.961-3.872 1.841-6.039-0.223-3.9124-1.846-8.1008-3-11.449-1.819-5.2912-3.64-10.581-5.464-15.87 3.91 2.5625 7.817 5.1266 11.721 7.6924l7.864 5.1927c1.805 1.1879 4.189 3.6048 6.48 3.6371 2.29 0.0323 4.511-2.4484 6.234-3.7019 2.563-1.8733 5.125-3.748 7.684-5.624l13.768-10.102c-1.913 4.4376-3.489 9.0306-5.143 13.547-0.699 1.9258-1.351 3.8546-2.007 5.7896-0.622 1.8356-1.904 4.1433-1.844 6.1253 0.043 1.6498 1.349 2.4288 2.565 3.2948 2.058 1.475 4.099 2.941 6.122 4.456 3.221 2.409 6.344 4.952 9.394 7.578-4.449-0.095-8.913-0.109-13.367 0.085-2.736 0.118-5.641 0.056-8.338 0.559-2.082 0.388-3 1.645-3.789 3.52-4.152 9.84-7.956 19.832-11.722 29.838-3.759-8.21-7.147-16.576-10.164-25.098-0.089-0.252-0.233-0.48-0.421-0.67 0.104-0.821-0.614-1.769-1.594-1.488-7.262 2.066-13.438 4.55-20.575 7.103l13.755-18.375z" fill="#143349"/>
 <path d="m457.19 119.9c-0.98-0.28-1.696 0.665-1.594 1.489-0.188 0.189-0.332 0.418-0.421 0.67-2.998 8.519-6.386 16.885-10.164 25.097-3.757-10-7.57-19.998-11.722-29.838-0.789-1.875-1.707-3.132-3.789-3.519-2.697-0.503-5.602-0.441-8.337-0.56-4.455-0.193-8.909-0.196-13.368-0.085 3.041-2.631 6.173-5.168 9.394-7.578 2.009-1.503 4.065-2.98 6.123-4.456 1.215-0.866 2.521-1.6449 2.564-3.2943 0.048-1.9621-1.217-4.2792-1.84-6.1118-0.893-2.6235-1.811-5.2385-2.754-7.8453-1.393-3.8483-2.766-7.7308-4.394-11.502l13.767 10.102c2.556 1.8787 5.118 3.7534 7.685 5.624 1.715 1.2486 3.937 3.7264 6.234 3.7019s4.675-2.4492 6.48-3.6371l7.869-5.1747c3.906-2.5647 7.813-5.1288 11.72-7.6924-1.823 5.289-3.644 10.579-5.464 15.87-1.572 4.5753-3.841 10.397-2.4 15.262l13.747 19.135c0.655 0.67 1.379 1.27 2.158 1.79-7.146-2.569-14.232-5.382-21.494-7.448z" fill="#FEF58A"/>
 <path d="m451.56 83.812-3.484 2.3036c-1.048 0.6885-2.396 1.9954-3.632 1.9478s-2.946-1.8111-3.982-2.5731l-3.411-2.5093-1.516-1.1112c6.203-1.2856 12.364-3.2115 18.454-4.8287 3.486-0.9246 6.971-1.8502 10.454-2.777 0.859-0.2304 1.717-0.424 2.575-0.5984-2.82 1.8573-5.641 3.7067-8.462 5.5481l-6.996 4.5982z" fill="#FBF6BC"/>
 <path d="m420.34 90.564c0.601 1.7545 2.174 4.592 2.136 6.4042-0.033 1.7047-3.371 3.2743-4.831 4.3603-1.728 1.286-3.416 2.621-5.109 3.953-3.292 2.625-6.512 5.332-9.662 8.12-7.131 3.356-12.805 8.9-18.061 14.747-11.263 12.522-20.874 26.691-27.671 42.142-3.342 7.53-5.959 15.36-7.817 23.386-0.664 2.915-1.305 5.931-1.757 8.974-0.333-1.829-0.624-3.664-0.842-5.521-0.658-5.764-0.894-11.569-0.707-17.367 0.321-10.667 1.96-21.261 4.555-31.616 2.77-11.19 6.306-22.496 12.301-32.425 6.387-10.608 15.113-19.618 24.544-27.556 7.892-6.6689 16.627-12.271 25.981-16.662 0.039 0.0755 0.084 0.1482 0.133 0.2176 1.411 4.1933 3.073 8.3073 4.569 12.47 0.764 2.1177 1.51 4.2416 2.238 6.3719z" fill="#FBF6BC"/>
 <path d="m366.87 158.55c5.009-8.768 10.833-17.045 17.395-24.72 5.637-6.619 11.691-13.189 19.316-17.473 5.195-0.174 10.395-0.125 15.583 0.089 2.513 0.104 5.026 0.238 7.534 0.423l0.179 0.012c-7.225 3.769-13.878 9.342-19.85 14.65-6.374 5.661-12.327 11.775-18.211 17.94-6.321 6.624-12.546 13.353-18.209 20.559-8.846 11.255-16.428 23.886-20.126 37.758 0.374-7.356 2.311-14.784 4.405-21.668 2.96-9.606 6.979-18.853 11.984-27.57z" fill="#FBF6BC"/>
 <path d="m474.89 129.81c-3.637 0.345-7.24 0.98-10.776 1.898-3.028 0.744-6.833 1.383-10.076 2.782 1.482-3.71 2.897-7.44 4.243-11.191 5.317 2.56 10.954 4.601 16.609 6.511z" fill="#FBF6BC"/>
 <path d="m411.05 132.2c6-5.238 12.416-9.498 18.97-13.91 0.168 0.276 0.313 0.564 0.434 0.863 0.46 1.115 0.904 2.238 1.355 3.355 3.826 9.502 7.537 19.048 11.133 28.637-3.642 2.038-7.742 3.069-11.658 4.487-4.383 1.587-8.68 3.421-12.881 5.432-8.739 4.189-17.052 9.222-25.059 14.668-14.109 9.596-29.124 20.128-39.736 33.829 1.811-6.896 4.467-13.542 7.908-19.786 8.361-15.306 20.345-28.207 32.288-40.767 5.544-5.813 11.205-11.544 17.246-16.808z" fill="#FBF6BC"/>
 <path d="m484.09 133.29c-0.489 0.011-1.305-0.027-1.981-0.075-5.531-0.411-10.856 0.224-16.245 1.485-4.788 1.117-9.301 2.324-13.703 4.371-1.855 4.449-3.811 8.856-5.868 13.222-0.092 0.22-0.241 0.411-0.432 0.555s-0.416 0.235-0.653 0.264c-3.008 2.449-6.741 3.49-10.419 4.772-4.572 1.602-9.054 3.448-13.428 5.53-8.445 4.075-16.579 8.763-24.338 14.026-8.078 5.424-15.954 11.23-23.496 17.385-8.141 6.647-15.755 13.963-21.493 22.834-0.685 1.062-1.962 0.926-2.667 0.263-0.198 0.067-0.409 0.089-0.616 0.064s-0.407-0.096-0.583-0.208c-0.177-0.112-0.326-0.261-0.437-0.438s-0.182-0.376-0.206-0.584c-0.035-0.183-0.062-0.367-0.094-0.549-0.086-0.121-0.157-0.251-0.213-0.389-3.883-9.981-4.836-21.486-4.823-32.113 0.017-10.957 1.475-21.892 3.889-32.591 2.6-11.489 6.029-23.2 11.609-33.631 5.986-11.185 14.621-20.743 24.118-29.073s20.493-16.95 32.827-20.517c0.103-0.0293 0.21-0.0443 0.318-0.0444 0.221-0.1004 0.463-0.1434 0.704-0.125 0.242 0.0184 0.475 0.0975 0.678 0.2301l13.664 10.004 2.162 1.5869c7.017-2.5462 14.512-4.178 21.706-6.1128 3.612-0.9849 7.232-1.9812 10.875-2.9333 2.913-0.7685 6.206-1.7859 9.218-1.1046 0.205 0.0469 0.397 0.1399 0.56 0.272 0.164 0.1321 0.296 0.2998 0.385 0.4904 0.173 0.1923 0.293 0.4266 0.347 0.6796s0.041 0.5158-0.038 0.7621c-2.211 6.4656-4.413 12.931-6.606 19.397-1.735 5.0867-4.476 11.178-1.13 16.186l17.491 23.61c0.115 0.934-0.194 2.471-1.082 2.499zm-19.979-1.584c3.536-0.919 7.14-1.554 10.777-1.899-5.647-1.905-11.292-3.951-16.61-6.511-1.351 3.756-2.765 7.486-4.243 11.192 3.239-1.392 7.048-2.039 10.076-2.782zm-102.59 58.058c-3.441 6.245-6.097 12.891-7.908 19.787 10.604-13.706 25.627-24.233 39.737-33.83 8.006-5.445 16.322-10.476 25.058-14.668 4.204-2.009 8.498-3.845 12.881-5.431 3.916-1.419 8.016-2.45 11.658-4.487-3.599-9.584-7.31-19.13-11.133-28.638-0.451-1.116-0.894-2.24-1.355-3.354-0.121-0.299-0.266-0.588-0.434-0.863-6.554 4.412-12.97 8.671-18.97 13.91-6.051 5.28-11.703 10.997-17.237 16.812-11.948 12.55-23.936 25.457-32.297 40.762zm-11.035 18.02c3.698-13.873 11.277-26.499 20.126-37.759 5.677-7.198 11.888-13.935 18.209-20.559 5.884-6.165 11.837-12.279 18.202-17.945 5.97-5.305 12.625-10.88 19.851-14.65l-0.18-0.012c-2.51-0.186-5.021-0.319-7.533-0.423-5.2-0.22-10.388-0.263-15.581-0.088-7.628 4.283-13.681 10.853-19.318 17.472-6.562 7.676-12.387 15.952-17.396 24.72-5.004 8.717-9.023 17.964-11.983 27.57-2.086 6.889-4.009 14.325-4.397 21.674zm63.047-136.06c-0.049-0.0693-0.094-0.1421-0.133-0.2176-9.353 4.3907-18.089 9.9926-25.981 16.662-9.431 7.9377-18.156 16.948-24.544 27.556-5.983 9.935-9.52 21.241-12.311 32.442-2.575 10.346-4.214 20.941-4.547 31.601-0.187 5.799 0.05 11.603 0.707 17.367 0.218 1.857 0.51 3.692 0.843 5.521 0.451-3.042 1.093-6.059 1.756-8.974 1.859-8.026 4.476-15.856 7.817-23.386 6.798-15.451 16.402-29.608 27.672-42.142 5.255-5.847 10.944-11.383 18.066-14.756 3.139-2.801 6.36-5.508 9.661-8.12 1.685-1.337 3.382-2.667 5.109-3.952 1.461-1.086 4.799-2.6561 4.832-4.3608 0.037-1.8122-1.536-4.6496-2.136-6.4041-0.731-2.1314-1.477-4.2554-2.238-6.3719-1.5-4.1574-3.162-8.2713-4.573-12.465zm50.904 2.5372c-3.484 0.9336-6.968 1.8593-10.454 2.777-6.089 1.6173-12.25 3.5432-18.453 4.8288l1.516 1.1111 3.408 2.5077c1.036 0.762 2.725 2.5287 3.982 2.5731 1.256 0.0444 2.584-1.2593 3.632-1.9478l3.498-2.2954 6.996-4.5982c2.819-1.8425 5.634-3.6952 8.445-5.5579-0.855 0.1687-1.716 0.368-2.57 0.6016zm-0.439 34.372c-1.308-1.732-1.96-3.872-1.84-6.039 0.223-3.9124 1.846-8.1008 2.999-11.449 1.82-5.2912 3.641-10.581 5.464-15.87-3.909 2.5625-7.816 5.1266-11.72 7.6924l-7.865 5.1927c-1.804 1.1879-4.189 3.6048-6.479 3.6371s-4.511-2.4484-6.234-3.7019c-2.564-1.8733-5.125-3.748-7.685-5.624l-13.767-10.102c1.913 4.4376 3.488 9.0306 5.142 13.547 0.7 1.9258 1.352 3.8546 2.008 5.7896 0.622 1.8356 1.903 4.1433 1.843 6.1253-0.042 1.6495-1.349 2.4288-2.564 3.2948-2.058 1.475-4.099 2.941-6.123 4.456-3.221 2.409-6.344 4.952-9.394 7.578 4.45-0.095 8.914-0.109 13.368 0.085 2.736 0.118 5.641 0.056 8.337 0.559 2.082 0.388 3 1.645 3.79 3.52 4.151 9.84 7.955 19.832 11.722 29.838 3.758-8.21 7.146-16.576 10.164-25.098 0.089-0.252 0.232-0.48 0.421-0.67-0.104-0.821 0.614-1.769 1.594-1.488 7.262 2.066 13.437 4.55 20.574 7.103l-13.755-18.375z" fill="#143349"/>
 <path d="m460.39 329.32c0.017-1.019-1.081-1.467-1.85-1.154-0.232-0.133-0.49-0.213-0.757-0.234-9.005-0.691-17.963-1.798-26.873-3.321 8.688-6.219 17.358-12.489 25.788-19.046 1.607-1.248 2.583-2.46 2.419-4.571-0.213-2.735-1.024-5.525-1.618-8.198-0.966-4.353-2.116-8.656-3.378-12.934 3.329 2.256 6.591 4.624 9.752 7.112 1.972 1.552 3.931 3.155 5.888 4.761 1.151 0.95 2.242 2.01 3.846 1.624 1.908-0.461 3.819-2.282 5.428-3.359 2.303-1.541 4.591-3.105 6.865-4.69 3.357-2.342 6.751-4.673 9.972-7.221l-6.194 15.912c-1.154 2.955-2.301 5.915-3.444 8.879-0.762 1.979-2.58 4.767-1.962 6.98 0.618 2.212 3.576 3.881 5.19 5.317l7.035 6.262c3.489 3.109 6.976 6.219 10.464 9.33-5.581-0.392-11.162-0.782-16.744-1.17-4.826-0.335-11.036-1.02-15.363 1.632l-14.924 18.23c-0.478 0.806-0.87 1.661-1.171 2.548 0.632-7.567 1.515-15.14 1.631-22.689z" fill="#FEF58A"/>
 <path d="m493.8 314.54-3.127-2.769c-0.936-0.834-2.547-1.798-2.821-3.004s0.987-3.315 1.454-4.513l1.542-3.944 0.681-1.751c2.847 5.658 6.302 11.111 9.44 16.574 1.795 3.129 3.591 6.255 5.388 9.379 0.445 0.771 0.854 1.549 1.244 2.333-2.524-2.243-5.04-4.489-7.549-6.738l-6.252-5.567z" fill="#FBF6BC"/>
 <path d="m479.19 286.13c-1.54 1.034-3.873 3.288-5.633 3.72-1.655 0.41-4.036-2.408-5.463-3.537-1.689-1.337-3.415-2.621-5.14-3.913-3.388-2.499-6.836-4.909-10.344-7.23-5.087-6.02-11.911-10.066-18.919-13.629-15.011-7.638-31.184-13.255-47.868-15.821-8.138-1.279-16.379-1.781-24.612-1.498-2.988 0.113-6.068 0.274-9.123 0.625 1.68-0.795 3.377-1.551 5.114-2.242 5.398-2.127 10.944-3.858 16.593-5.178 10.386-2.45 21.044-3.61 31.717-3.783 11.526-0.221 23.362 0.269 34.504 3.49 11.9 3.424 22.862 9.52 32.97 16.575 8.484 5.898 16.156 12.886 22.818 20.784-0.063 0.057-0.122 0.119-0.176 0.185-3.685 2.448-7.229 5.118-10.863 7.641-1.848 1.286-3.706 2.556-5.575 3.811z" fill="#FBF6BC"/>
 <path d="m399.69 252.08c9.765 2.569 19.267 6.053 28.379 10.405 7.853 3.732 15.766 7.878 21.878 14.135 1.512 4.974 2.81 10.009 3.947 15.076 0.55 2.453 1.07 4.916 1.541 7.386l0.035 0.176c-5.511-6.003-12.616-10.988-19.288-15.382-7.119-4.691-14.565-8.859-22.043-12.947-8.034-4.391-16.145-8.663-24.571-12.268-13.161-5.631-27.324-9.685-41.681-9.667 7.202-1.543 14.879-1.595 22.07-1.353 10.045 0.373 20.017 1.862 29.733 4.439z" fill="#FBF6BC"/>
 <path d="m455.4 348.98c-1.274-3.424-2.82-6.74-4.623-9.918-1.502-2.732-3.103-6.242-5.295-9.013 3.968 0.472 7.937 0.873 11.908 1.202-1.096 5.799-1.608 11.772-1.99 17.729z" fill="#FBF6BC"/>
 <path d="m436.58 287.93c6.613 4.439 12.388 9.535 18.346 14.724-0.223 0.233-0.464 0.448-0.722 0.642-0.957 0.733-1.927 1.452-2.889 2.177-8.188 6.155-16.448 12.21-24.781 18.165-2.91-2.99-4.967-6.684-7.351-10.099-2.667-3.823-5.55-7.499-8.58-11.036-6.309-7.357-13.322-14.084-20.654-20.409-12.922-11.145-26.98-22.922-42.962-29.626 7.13-0.036 14.237 0.809 21.16 2.517 16.948 4.115 32.511 12.351 47.734 20.637 7.05 3.851 14.051 7.835 20.699 12.308z" fill="#FBF6BC"/>
 <path d="m454.42 358.77c-0.137-0.47-0.312-1.268-0.441-1.933-1.033-5.449-3.025-10.428-5.638-15.307-2.318-4.336-4.652-8.384-7.769-12.105-4.777-0.641-9.54-1.389-14.289-2.246-0.237-0.032-0.461-0.127-0.649-0.274s-0.335-0.341-0.424-0.562c-3.144-2.272-5.115-5.608-7.306-8.829-2.73-4.001-5.674-7.853-8.817-11.54-6.122-7.101-12.755-13.745-19.847-19.878-7.33-6.399-14.977-12.504-22.874-18.196-8.527-6.143-17.565-11.604-27.619-14.851-1.202-0.387-1.402-1.655-0.945-2.508-0.115-0.174-0.19-0.371-0.22-0.578-0.029-0.207-0.013-0.418 0.05-0.617 0.062-0.199 0.168-0.382 0.31-0.536 0.142-0.153 0.316-0.272 0.51-0.35 0.169-0.081 0.339-0.155 0.506-0.233 0.095-0.114 0.203-0.216 0.321-0.306 8.636-6.334 19.502-10.232 29.771-12.97 10.588-2.819 21.527-4.241 32.486-4.678 11.771-0.463 23.971-0.182 35.49 2.509 12.354 2.887 23.821 8.754 34.325 15.771 10.503 7.017 21.676 15.408 28.314 26.398 0.055 0.092 0.097 0.192 0.125 0.296 0.154 0.187 0.258 0.41 0.303 0.648s0.029 0.484-0.047 0.714l-6.127 15.787-0.973 2.5c4.276 6.119 7.792 12.936 11.522 19.384 1.887 3.235 3.786 6.473 5.648 9.745 1.497 2.615 3.332 5.533 3.453 8.618 8e-3 0.211-0.032 0.42-0.117 0.612-0.086 0.193-0.214 0.363-0.375 0.498-0.141 0.217-0.336 0.394-0.566 0.511-0.231 0.118-0.488 0.174-0.746 0.161-6.818-0.462-13.633-0.916-20.446-1.361-5.362-0.358-11.956-1.429-15.926 3.099l-18.279 23.005c-0.872 0.353-2.437 0.452-2.694-0.398zm-3.64-19.708c1.802 3.177 3.348 6.494 4.623 9.917 0.379-5.947 0.893-11.929 1.99-17.728-3.977-0.334-7.947-0.734-11.908-1.202 2.182 2.768 3.792 6.28 5.295 9.013zm-82.634-84.071c-6.922-1.708-14.029-2.553-21.159-2.518 15.984 6.695 30.04 18.482 42.962 29.627 7.332 6.325 14.344 13.055 20.653 20.408 3.029 3.541 5.914 7.214 8.581 11.037 2.384 3.415 4.441 7.108 7.351 10.099 8.326-5.957 16.586-12.012 24.78-18.165 0.962-0.725 1.933-1.444 2.89-2.177 0.257-0.194 0.498-0.409 0.721-0.643-5.958-5.188-11.733-10.284-18.345-14.723-6.667-4.479-13.652-8.458-20.702-12.299-15.214-8.293-30.784-16.531-47.732-20.646zm-20.261-5.996c14.357-0.018 28.514 4.035 41.681 9.668 8.422 3.621 16.537 7.876 24.571 12.267 7.478 4.088 14.924 8.257 22.045 12.938 6.669 4.394 13.777 9.379 19.288 15.383l-0.034-0.177c-0.47-2.473-0.992-4.932-1.542-7.386-1.133-5.08-2.434-10.102-3.948-15.072-6.111-6.26-14.023-10.407-21.876-14.139-9.112-4.352-18.614-7.835-28.38-10.405-9.716-2.577-19.688-4.066-29.732-4.439-7.195-0.232-14.875-0.165-22.073 1.362zm147.74 25.683c0.055-0.065 0.113-0.127 0.176-0.184-6.662-7.899-14.334-14.887-22.818-20.784-10.108-7.055-21.07-13.151-32.97-16.575-11.145-3.208-22.981-3.698-34.522-3.495-10.661 0.19-21.319 1.349-31.702 3.787-5.649 1.32-11.195 3.051-16.592 5.178-1.738 0.691-3.435 1.447-5.115 2.242 3.056-0.351 6.135-0.512 9.123-0.626 8.233-0.282 16.474 0.22 24.612 1.498 16.684 2.567 32.845 8.18 47.868 15.822 7.008 3.563 13.828 7.625 18.929 13.631 3.518 2.308 6.967 4.718 10.344 7.231 1.727 1.281 3.451 2.576 5.14 3.912 1.427 1.129 3.807 3.947 5.462 3.538 1.761-0.433 4.094-2.687 5.634-3.721 1.869-1.257 3.728-2.527 5.575-3.811 3.628-2.525 7.171-5.195 10.856-7.643zm10.725 49.827c-1.804-3.124-3.6-6.25-5.388-9.379-3.139-5.464-6.593-10.917-9.441-16.575l-0.681 1.752-1.54 3.94c-0.468 1.199-1.737 3.288-1.455 4.513 0.283 1.225 1.886 2.17 2.822 3.004l3.122 2.785 6.253 5.568c2.509 2.246 5.027 4.485 7.554 6.718-0.384-0.782-0.8-1.562-1.246-2.326zm-33.315 8.472c1.334-1.712 3.232-2.896 5.357-3.341 3.837-0.797 8.303-0.313 11.835-0.066 5.582 0.388 11.164 0.778 16.744 1.17-3.487-3.113-6.975-6.223-10.463-9.33l-7.052-6.252c-1.614-1.436-4.566-3.114-5.19-5.318s1.198-4.991 1.962-6.979c1.146-2.961 2.294-5.921 3.444-8.879l6.195-15.913c-3.792 2.996-7.82 5.707-11.755 8.474-1.679 1.174-3.373 2.303-5.073 3.437-1.612 1.076-3.509 2.911-5.439 3.366-1.604 0.386-2.695-0.674-3.846-1.624-1.958-1.606-3.902-3.198-5.889-4.761-3.161-2.488-6.425-4.846-9.751-7.112 1.243 4.273 2.412 8.581 3.378 12.934 0.593 2.673 1.405 5.463 1.617 8.198 0.164 2.111-0.812 3.323-2.419 4.571-8.43 6.557-17.098 12.818-25.787 19.046 8.903 1.505 17.861 2.612 26.873 3.321 0.266 0.021 0.524 0.101 0.756 0.234 0.766-0.314 1.867 0.135 1.85 1.154-0.116 7.549-0.917 14.157-1.536 21.712l14.189-18.042z" fill="#143349"/>
 <path d="m140.12 336.83c-0.109-1.013 0.945-1.557 1.739-1.315 0.219-0.153 0.469-0.255 0.733-0.3 8.907-1.493 17.73-3.395 26.469-5.708-9.208-5.418-18.404-10.889-27.385-16.666-1.712-1.1-2.793-2.22-2.818-4.338-0.033-2.742 0.526-5.594 0.879-8.309 0.573-4.422 1.334-8.81 2.209-13.184-3.114 2.545-6.151 5.194-9.077 7.955-1.826 1.722-3.633 3.493-5.44 5.267-1.062 1.049-2.053 2.202-3.686 1.962-1.941-0.289-4.007-1.933-5.705-2.862-2.432-1.329-4.851-2.682-7.257-4.058-3.552-2.032-7.142-4.051-10.578-6.302l7.592 15.296c1.412 2.84 2.82 5.685 4.222 8.536 0.936 1.903 2.996 4.517 2.578 6.776s-3.215 4.186-4.695 5.76l-6.447 6.865c-3.197 3.408-6.3933 6.817-9.5892 10.227 5.5234-0.889 11.047-1.776 16.572-2.661 4.778-0.764 10.901-2.001 15.447 0.254l16.494 16.824c0.548 0.761 1.015 1.577 1.393 2.434-1.305-7.481-2.861-14.944-3.65-22.453z" fill="#FEF58A"/>
 <path d="m105.52 325.1 2.867-3.037c0.858-0.914 2.377-2.018 2.542-3.244s-1.279-3.213-1.852-4.365l-1.887-3.79-0.835-1.684c-2.331 5.89-5.285 11.63-7.9224 17.352-1.5089 3.276-3.0186 6.55-4.5289 9.822-0.3745 0.808-0.7123 1.62-1.0312 2.435 2.3134-2.46 4.6191-4.921 6.9172-7.385l5.7303-6.104z" fill="#FBF6BC"/>
 <path d="m117.53 295.5c1.625 0.892 4.151 2.929 5.943 3.202 1.685 0.26 3.804-2.759 5.124-4.011 1.563-1.482 3.168-2.916 4.771-4.356 3.15-2.792 6.369-5.501 9.657-8.125 4.529-6.45 10.964-11.089 17.626-15.264 14.268-8.948 29.876-15.987 46.264-20.033 7.991-2.001 16.154-3.236 24.379-3.69 2.987-0.154 6.068-0.269 9.143-0.192-1.744-0.642-3.502-1.243-5.294-1.776-5.566-1.637-11.244-2.866-16.989-3.676-10.563-1.513-21.282-1.716-31.928-0.935-11.499 0.809-23.245 2.354-34.055 6.557-11.546 4.473-21.92 11.524-31.357 19.454-7.924 6.631-14.941 14.276-20.871 22.738 0.0681 0.052 0.1321 0.108 0.1911 0.168 3.89 2.109 7.658 4.452 11.502 6.641 1.956 1.116 3.92 2.215 5.894 3.298z" fill="#FBF6BC"/>
 <path d="m193.68 254.48c-9.497 3.431-18.65 7.749-27.337 12.898-7.488 4.418-14.999 9.255-20.528 16.032-1.062 5.089-1.905 10.22-2.584 15.368-0.329 2.493-0.628 4.992-0.876 7.494l-0.019 0.179c4.953-6.472 11.584-12.071 17.837-17.043 6.671-5.308 13.715-10.125 20.798-14.865 7.611-5.09 15.308-10.069 23.378-14.412 12.605-6.785 26.349-12.087 40.651-13.351-7.312-0.894-14.962-0.26-22.103 0.623-9.971 1.268-19.77 3.642-29.217 7.077z" fill="#FBF6BC"/>
 <path d="m146.84 355.97c0.963-3.524 2.207-6.965 3.718-10.291 1.253-2.856 2.534-6.494 4.469-9.45-3.909 0.825-7.827 1.578-11.753 2.261 1.61 5.678 2.654 11.581 3.566 17.48z" fill="#FBF6BC"/>
 <path d="m160.13 293.49c-6.19 5.013-11.487 10.604-16.957 16.304 0.242 0.212 0.502 0.405 0.775 0.575 1.019 0.645 2.05 1.274 3.073 1.91 8.705 5.4 17.473 10.693 26.303 15.88 2.632-3.239 4.351-7.101 6.42-10.716 2.315-4.045 4.859-7.964 7.561-11.758 5.626-7.891 12.01-15.217 18.748-22.171 11.875-12.255 24.826-25.241 40.144-33.345-7.104 0.601-14.107 2.078-20.849 4.397-16.513 5.612-31.279 15.205-45.701 24.817-6.678 4.465-13.295 9.059-19.517 14.107z" fill="#FBF6BC"/>
 <path d="m148.69 365.63c0.094-0.48 0.198-1.29 0.266-1.965 0.543-5.519 2.083-10.656 4.249-15.749 1.922-4.526 3.885-8.765 6.657-12.75 4.701-1.065 9.378-2.236 14.032-3.513 0.233-0.054 0.447-0.168 0.622-0.331 0.174-0.163 0.302-0.37 0.371-0.598 2.929-2.544 4.595-6.043 6.489-9.446 2.362-4.229 4.95-8.329 7.751-12.281 5.463-7.62 11.477-14.83 17.993-21.571 6.729-7.028 13.8-13.792 21.157-20.166 7.945-6.88 16.458-13.127 26.182-17.258 1.163-0.493 1.249-1.774 0.717-2.583 0.1-0.183 0.157-0.387 0.168-0.595 0.011-0.209-0.025-0.417-0.104-0.61-0.08-0.193-0.202-0.366-0.357-0.506s-0.34-0.244-0.54-0.303c-0.175-0.066-0.351-0.125-0.524-0.187-0.105-0.105-0.222-0.198-0.347-0.277-9.168-5.537-20.339-8.449-30.811-10.259-10.797-1.862-21.82-2.301-32.774-1.758-11.765 0.59-23.891 1.959-35.124 5.668-12.047 3.979-22.944 10.846-32.779 18.774-9.835 7.927-20.213 17.282-25.844 28.821-0.0467 0.097-0.0798 0.2-0.0984 0.306-0.1367 0.2-0.2206 0.431-0.2439 0.672s0.0146 0.485 0.1104 0.707l7.5124 15.177 1.193 2.403c-3.712 6.477-6.6055 13.58-9.7455 20.336-1.5899 3.39-3.1923 6.784-4.7551 10.21-1.2568 2.739-2.8239 5.808-2.6694 8.892 0.0111 0.211 0.0698 0.415 0.1719 0.599s0.2447 0.343 0.4172 0.463c0.1597 0.204 0.3701 0.362 0.61 0.458 0.2399 0.097 0.5011 0.13 0.7573 0.094 6.749-1.069 13.497-2.13 20.243-3.181 5.309-0.837 11.781-2.492 16.139 1.663l20.26 21.281c0.901 0.274 2.468 0.233 2.648-0.637zm1.866-19.954c-1.512 3.325-2.755 6.767-3.719 10.29-0.908-5.889-1.955-11.802-3.566-17.48 3.932-0.687 7.85-1.44 11.754-2.26-1.926 2.952-3.217 6.594-4.469 9.45zm74.795-91.115c6.742-2.319 13.745-3.796 20.85-4.397-15.322 8.095-28.269 21.09-40.144 33.345-6.738 6.954-13.121 14.284-18.749 22.171-2.7 3.798-5.245 7.713-7.56 11.759-2.07 3.615-3.788 7.477-6.42 10.715-8.825-5.189-17.593-10.482-26.304-15.88-1.023-0.636-2.053-1.265-3.072-1.91-0.274-0.17-0.533-0.363-0.776-0.575 5.471-5.7 10.768-11.291 16.957-16.303 6.241-5.056 12.842-9.644 19.521-14.098 14.412-9.619 29.184-19.215 45.697-24.827zm19.645-7.781c-14.301 1.264-28.04 6.565-40.651 13.351-8.065 4.359-15.767 9.322-23.378 14.413-7.083 4.74-14.127 9.556-20.801 14.855-6.25 4.971-12.884 10.571-17.837 17.043l0.018-0.178c0.248-2.506 0.547-5.002 0.876-7.495 0.675-5.16 1.523-10.279 2.586-15.364 5.528-6.781 13.038-11.618 20.527-16.036 8.687-5.148 17.839-9.467 27.337-12.898 9.446-3.435 19.246-5.808 29.217-7.077 7.145-0.873 14.8-1.492 22.106-0.614zm-144.86 38.775c-0.059-0.061-0.123-0.117-0.1911-0.168 5.9301-8.462 12.947-16.107 20.871-22.739 9.437-7.929 19.811-14.98 31.357-19.453 10.815-4.191 22.56-5.736 34.073-6.564 10.635-0.763 21.354-0.56 31.913 0.941 5.745 0.81 11.423 2.038 16.989 3.675 1.792 0.533 3.55 1.135 5.294 1.777-3.075-0.077-6.156 0.037-9.142 0.191-8.226 0.454-16.389 1.69-24.38 3.69-16.388 4.046-31.983 11.08-46.264 20.033-6.662 4.175-13.091 8.83-17.636 15.268-3.298 2.612-6.517 5.321-9.657 8.125-1.606 1.431-3.207 2.874-4.77 4.356-1.32 1.252-3.439 4.271-5.124 4.011-1.792-0.273-4.318-2.31-5.943-3.202-1.975-1.086-3.939-2.185-5.894-3.298-3.838-2.191-7.606-4.534-11.496-6.643zm-6.2311 50.585c1.5173-3.272 3.027-6.547 4.5289-9.823 2.6382-5.722 5.5922-11.461 7.9222-17.351l0.835 1.684 1.886 3.787c0.573 1.152 2.024 3.119 1.852 4.364-0.172 1.246-1.684 2.33-2.542 3.245l-2.861 3.052-5.7305 6.104c-2.2988 2.461-4.6068 4.917-6.924 7.366 0.3127-0.813 0.6567-1.627 1.0334-2.428zm33.938 5.463c-1.482-1.586-3.478-2.596-5.634-2.849-3.892-0.451-8.297 0.429-11.794 0.991-5.525 0.885-11.049 1.772-16.572 2.661 3.1951-3.412 6.3914-6.821 9.5884-10.227l6.465-6.857c1.48-1.574 4.27-3.509 4.695-5.76 0.424-2.251-1.639-4.864-2.578-6.776-1.406-2.847-2.814-5.693-4.223-8.536l-7.591-15.296c4.044 2.645 8.299 4.985 12.464 7.39 1.778 1.019 3.566 1.992 5.36 2.97 1.702 0.928 3.755 2.586 5.718 2.867 1.633 0.241 2.624-0.912 3.686-1.961 1.807-1.774 3.601-3.534 5.44-5.267 2.926-2.761 5.966-5.401 9.077-7.956-0.856 4.368-1.636 8.763-2.209 13.185-0.353 2.715-0.912 5.566-0.879 8.309 0.025 2.118 1.106 3.238 2.818 4.337 8.981 5.778 18.174 11.24 27.385 16.667-8.734 2.294-17.557 4.197-26.469 5.708-0.264 0.044-0.514 0.147-0.733 0.3-0.791-0.244-1.848 0.301-1.739 1.315 0.789 7.509 2.178 14.019 3.469 21.488l-15.744-16.703z" fill="#143349"/>
 <path d="m351.21 321.51c-0.045 0.743-0.091 1.516-0.141 2.234 7.767-14.137 12.228-29.851 13.048-45.96 0.056-1.194 1.841-1.906 2.432-0.663l2.472 5.223c6.401-24.181 10.395-49.399 6.502-74.318-0.182-1.148 1.233-2.366 2.179-1.274 1.779 2.062 3.561 4.122 5.344 6.178 1.128-10.802 0.818-21.706-0.921-32.427-0.395-1.035-0.718-2.096-0.965-3.175-0.369-1.638 2.143-2.331 2.528-0.693 0.091 0.4 0.202 0.789 0.313 1.183l-0.864-10.035c-5.946 1.137-12.518 1.365-17.695-2.235-4.934-3.443-7.755-9.499-8.458-15.354-0.774-6.446 0.935-14.241 4.975-19.434 3.67-4.722 9.423-6.223 15.045-7.244-2.551-5.07-5.458-9.953-8.701-14.611-7.492 4.863-16.39 7.103-25.253 7.583-8.422 0.435-16.643-0.809-23.938-5.227-6.552-3.943-11.76-9.772-14.945-16.724-1.784-3.9738-2.694-8.2053-3.225-12.513-0.41-3.3165-1.249-7.3004-0.329-10.667-0.079 0.0072-0.158 0.0072-0.237 0-10.699-1.6902-21.655-0.4911-31.734 3.4732l3.24-0.1871c1.578-0.096 1.628 2.0779 0.349 2.5632-16.188 6.13-30.413 16.528-41.168 30.091l8.509-3.948c1.269-0.592 2.73 0.975 1.577 2.047-14.204 13.191-24.324 30.182-29.156 48.954l5.824-5.192c1.082-0.956 2.852 0.268 2.053 1.582-9.881 16.203-15.726 34.542-17.043 53.474l8.595-11.375c0.839-1.108 2.821-0.506 2.381 1.011-3.248 11.311-4.493 23.103-3.681 34.843l1.568-2.391c0.682-1.042 2.452-0.688 2.426 0.657-0.233 13.054 0.577 26.105 2.422 39.03 1.351-4.35 3.252-8.509 5.657-12.377 0.835-1.339 2.599-0.394 2.387 1.012-2.247 14.991-1.324 30.287 2.709 44.899 0.147-0.349 0.289-0.698 0.43-1.047 0.095-0.293 0.29-0.543 0.551-0.707 0.261-0.163 0.571-0.23 0.876-0.189 0.306 0.042 0.586 0.189 0.794 0.417 0.208 0.227 0.329 0.52 0.342 0.828 0.755 5.782 2.043 11.482 3.848 17.027 0.67-2.404 1.557-4.742 2.649-6.986 0.435-0.89 1.385-0.794 1.951-0.258 0.358-0.025 0.712 0.092 0.985 0.325 0.272 0.234 0.442 0.566 0.471 0.923 0.617 7.527 2.556 14.886 5.728 21.74 0.395-1.052 0.819-2.093 1.274-3.125 0.506-1.112 2.063-0.632 2.387 0.309 3.472 10.076 10.241 18.688 19.211 24.444 0.674-2.649 1.33-5.3 1.967-7.953 0.253-1.011 1.916-1.355 2.381-0.308 1.516 3.452 3.877 6.467 6.866 8.766-2.23-6.572-3.694-13.38-4.363-20.288-0.243-2.528-1.184-6.603 1.486-8.231 1.259-0.768 2.912-0.616 4.302-0.596 2.022 0.035 4.045 0.091 6.067 0.131l13.175 0.289c2.937 0.065 6.78-0.415 8.761 2.259 0.809 1.092 1.103 2.463 1.477 3.747 0.677 2.345 1.344 4.696 2.022 7.042l3.428 11.982c1.846-0.36 3.58-1.157 5.056-2.323 1.477-1.166 2.653-2.668 3.432-4.381 0.556-1.168 2.503-0.596 2.432 0.663-0.164 2.631-0.1 5.271 0.192 7.891 2.952-0.596 4.98-3.352 6.694-5.697 1.855-2.528 3.614-5.172 5.288-7.847 3.497-5.62 6.607-11.473 9.307-17.518 0.556-1.183 2.528-0.586 2.452 0.658zm-8.453-164.36c0.28-0.46 0.62-0.88 1.011-1.249 1.011-2.25 4.748-2.811 6.952-1.592 3.261 1.804 3.65 6.526 1.178 9.16-1.426 1.517-3.504 1.982-5.516 1.724-1.896-0.242-4.247-0.895-4.742-3.033-0.374-1.593 0.273-3.66 1.117-5.01zm-12.032 6.572c1.587 5.056 1.557 14.272-5.627 14.849-6.279 0.505-10.238-8.979-10.981-13.934-0.622-4.145 1.163-11.704 5.976-11.8 4.995-1.082 9.454 7.109 10.632 10.905v-0.02zm-25.658-44.793c0.958-0.823 2.198-1.24 3.458-1.163 13.1-1.264 19.626 24.121 5.359 23.484-6.309-0.283-10.546-6.866-11.42-12.568-0.486-3.15-0.026-7.503 2.603-9.733v-0.02zm-19.479-20.617c0.366-0.7976 0.938-1.4831 1.656-1.9861 0.719-0.503 1.559-0.8052 2.434-0.8754 0.81-0.1831 1.657-0.1143 2.427 0.1971 1.744 0.7129 2.669 2.3813 2.922 4.171 0.268 1.8911 0.445 4.9441-0.92 6.5061-1.102 1.259-3.256 1.618-4.828 1.391-4.222-0.617-5.385-6.042-3.691-9.4037zm-4.813 64.348c0.733-3.948 3.367-9.443 7.538-10.303 1.739-0.687 3.66-0.748 5.015 0.849 1.593 1.881 2.022 5.056 2.022 7.407 0 5.01-2.714 12.022-8.089 13.458-6.754 1.795-7.305-7.007-6.486-11.411zm-46.937 6.386c-0.618-0.821-0.984-1.805-1.051-2.831-0.956-1.517-0.147-3.777 0.91-5.097 0.647-0.826 1.491-1.477 2.455-1.893 0.963-0.416 2.015-0.583 3.061-0.488 4.327 0.465 7.148 5.354 5.055 9.252s-7.745 4.752-10.43 1.057zm108.93 54.095c-0.783 2.953-3.033 5.652-6.173 6.067-3.301 0.44-6.218-1.861-7.522-4.763-0.506-1.142-1.315-3.796-1.082-5.768-8.716 3.033-18.064 4.722-26.922 6.299-11.992 2.139-24.469 3.393-36.491 1.77 0.04 2.902-0.218 5.925-2.083 8.276-1.694 2.138-4.596 3.539-7.326 2.74s-4.211-3.458-4.671-6.067c-0.379-2.169-0.855-5.93 0.212-8.281-2.362-0.864-4.667-1.877-6.901-3.033-1.491-0.774-0.172-3.034 1.32-2.255 5.229 2.667 10.826 4.542 16.608 5.561 0.318-0.075 0.649-0.085 0.972-0.03s0.632 0.173 0.908 0.349c12.422 1.916 25.415 0.505 37.771-1.724 15.961-2.907 33.696-6.027 45.764-17.801 1.203-1.173 3.033 0.672 1.845 1.845-2.087 2.026-4.358 3.852-6.785 5.455 1.118 1.598 0.89 3.564 0.956 5.561 0.147 1.944 0.013 3.899-0.4 5.804v-5e-3z" fill="#5784BA"/>
 <path d="m288.14 172.02c3.423-1.906 5.288-6.522 5.561-10.248 0.127-1.726-0.06-3.461-0.551-5.121-0.809-2.679-2.33-3.19-4.403-2.998-3.271 1.163-5.253 4.621-6.153 8.049-0.945 3.554-1.259 14.115 5.546 10.318z" fill="#CBE9FF"/>
 <path d="m289.05 106.19c1.795 0.439 3.883-0.369 4.338-2.225 0.184-1.048 0.22-2.117 0.106-3.175-0.101-1.5974-0.637-3.2961-2.381-3.7864-1.011-0.2832-2.068 0.1971-3.003 0.5611-0.074 0.0276-0.154 0.0276-0.228 0-0.636 0.5903-1.109 1.336-1.37 2.1638-0.642 2.2145-0.05 5.8245 2.538 6.4615z" fill="#CBE9FF"/>
 <path d="m314.61 139.66c7.331-0.359 6.36-9.024 4.014-13.675-2.255-4.479-6.016-6.229-10.571-6.709-1.487 0.248-2.735 1.112-3.494 3.089-0.966 2.755-0.948 5.76 0.051 8.504 1.456 4.317 4.929 9.039 10 8.791z" fill="#CBE9FF"/>
 <path d="m238.25 163.28c-0.895 0.238-1.284 1.047-1.638 1.886 0.025 0.354 0.125 0.699 0.294 1.011 0.768 1.39 2.725 1.082 3.422-0.212 0.698-1.294-0.617-3.074-2.078-2.685z" fill="#fff"/>
 <path d="m254.31 224.58c0.506 2.528-0.384 5.687 1.042 7.866 1.158 1.775 3.079 0.86 3.953-0.713 0.941-1.678 0.845-3.847 0.835-5.723-1.962-0.389-3.903-0.859-5.83-1.43z" fill="#fff"/>
 <path d="m338.97 213.79c-2.428 1.368-4.945 2.574-7.532 3.61 0.017 0.076 0.028 0.154 0.035 0.232 0.066 1.861 0.682 4.434 1.805 5.93 1.517 2.023 3.696 1.922 4.919-0.278 1.577-2.836 0.238-6.481 0.773-9.494z" fill="#fff"/>
 <path d="m306.39 94.968c3.267 6.4176 8.371 11.717 14.661 15.223 13.761 7.684 33.003 5.217 46.097-2.927-6.136-8.5112-13.369-16.174-21.512-22.791-0.159-0.1631-0.273-0.365-0.331-0.5858-0.057-0.2208-0.056-0.4528 4e-3 -0.673 0.06-0.2201 0.176-0.4209 0.337-0.5823s0.362-0.2779 0.582-0.3379c2.796-0.5056 6.006 0.182 8.827-0.3842-15.782-9.1696-34.184-12.778-52.26-10.248-0.21 0.0305-0.424 0.0132-0.627-0.0506-0.723 3.8474 0.233 8.5188 0.799 12.134 0.549 3.8965 1.704 7.6833 3.423 11.224z" fill="#CBE9FF"/>
 <path d="m362.88 132.38c-3.539 5.056-5.056 12.417-4.09 18.488 0.966 6.072 4.434 12.382 10.379 14.783 2.912 1.178 6.102 1.365 9.212 1.208 1.42-0.075 3.149-0.576 4.626-0.384-0.58-6.741-1.163-13.482-1.75-20.222-0.091-1.012 1.163-1.568 1.962-1.128l2.553 1.411c-1.956-7.373-4.62-14.54-7.953-21.401-5.591 0.971-11.486 2.321-14.939 7.245z" fill="#CBE9FF"/>
 <path d="m348.43 160.49c0.226-0.202 0.389-0.464 0.472-0.756 0.082-0.292 0.08-0.601-7e-3 -0.892-0.233-0.682-0.845-0.778-1.517-0.753-0.339 0.021-0.677 0.063-1.011 0.126-0.066 0.248-0.111 0.46-0.142 0.592-0.153 0.582-0.246 1.178-0.278 1.779 0.789 0.263 2.028 0.258 2.483-0.096z" fill="#fff"/>
 <path d="m318.54 154.79c-0.054 0.018-0.11 0.026-0.167 0.025-3.17 2.341-3.033 8.812-1.946 12.194 1.132 3.539 4.333 10.536 8.923 9.768 5.824-0.971 4.95-8.984 3.595-12.998s-5.182-10.895-10.405-8.989z" fill="#CBE9FF"/>
 <path d="m350.55 329.85c8.803-14.275 14.209-30.382 15.799-47.078l1.886 3.989c0.505 1.042 2.108 0.708 2.386-0.313 6.663-24.267 11.051-49.505 8.038-74.627l4.414 5.107c0.829 0.96 2.098 0.08 2.229-0.921 1.335-10.476 1.335-21.08 0-31.557 0.32-0.131 0.58-0.373 0.733-0.682 0.146-0.015 0.287-0.058 0.415-0.129 0.129-0.07 0.241-0.166 0.331-0.282 0.09-0.115 0.155-0.248 0.192-0.389 0.037-0.142 0.045-0.289 0.023-0.434-0.977-11.321-1.957-22.643-2.937-33.964l3.033 1.684c0.225 0.123 0.48 0.178 0.736 0.158 0.255-0.019 0.499-0.113 0.702-0.269s0.357-0.367 0.442-0.609c0.084-0.242 0.097-0.503 0.036-0.751-5.979-25-19.705-47.472-39.216-64.207 3.033 0 6.066 0.3893 8.862-1.274 0.193-0.118 0.351-0.2834 0.462-0.4803 0.11-0.1969 0.168-0.4189 0.168-0.6446s-0.058-0.4476-0.168-0.6446c-0.111-0.1969-0.269-0.3623-0.462-0.4803-16.734-10.426-36.591-14.66-56.123-11.967-0.121-0.0995-0.272-0.1568-0.428-0.1632-0.157-0.0063-0.312 0.0385-0.441 0.1279-0.166-0.1303-0.363-0.2141-0.571-0.2427-13.674-2.1996-27.692 0.1071-39.94 6.5723-1.122 0.5915-0.632 2.5278 0.657 2.4318l2.67-0.1567c-15.455 7.2532-28.77 18.382-38.651 32.305-0.829 1.173 0.733 2.28 1.79 1.79l6.502-3.033c-12.79 13.703-21.624 30.617-25.562 48.943-0.067 0.276-0.044 0.566 0.067 0.827s0.303 0.48 0.548 0.622c0.246 0.143 0.53 0.203 0.812 0.17 0.282-0.032 0.546-0.155 0.752-0.35l3.034-2.699c-8.444 16.13-13.149 33.953-13.767 52.148-0.05 1.421 1.719 1.603 2.432 0.663l7.295-9.631c-2.418 10.88-3.05 22.081-1.87 33.165 7e-3 0.283 0.105 0.556 0.28 0.778s0.417 0.382 0.691 0.456c0.273 0.074 0.562 0.058 0.826-0.046 0.263-0.104 0.485-0.29 0.634-0.531l1.198-1.83c0.016 13.908 1.199 27.791 3.539 41.502 0.213 1.253 2.286 1.233 2.528 0 0.758-4.113 2.011-8.12 3.731-11.932-1.276 14.436 0.282 28.983 4.586 42.822 0.409 1.319 2.022 1.147 2.528 0 0.025-0.061 0.055-0.127 0.08-0.193 1.043 5.938 2.636 11.765 4.758 17.407 0.404 1.057 2.3 1.405 2.528 0 0.428-2.806 1.166-5.556 2.199-8.2 0.992 7.986 3.401 15.731 7.113 22.871 0.541 1.037 2.068 0.713 2.386-0.308 0.278-0.905 0.582-1.795 0.905-2.679 4.165 9.938 11.421 18.27 20.693 23.761 0.173 0.099 0.366 0.157 0.565 0.171 0.199 0.013 0.398-0.019 0.583-0.094 0.184-0.075 0.349-0.191 0.482-0.339 0.134-0.148 0.231-0.325 0.286-0.516l1.578-6.381c2.291 3.7 5.519 6.727 9.358 8.777 0.91 0.505 2.35-0.344 1.916-1.471-2.337-6.026-4.012-12.288-4.995-18.676-0.364-2.432-2.356-9.656 0.935-10.698 1.234-0.389 3.423 0.061 4.737 0.091l5.056 0.107 10.111 0.222c1.608 0.035 3.231 0 4.833 0.111 2.321 0.172 3.145 1.375 3.762 3.494 1.997 6.87 3.933 13.756 5.905 20.632 0.077 0.275 0.241 0.518 0.468 0.691s0.505 0.268 0.79 0.269c3.51-0.343 6.778-1.943 9.202-4.504 0.061 1.798 0.218 3.592 0.47 5.374 0.076 0.275 0.241 0.517 0.468 0.69 0.228 0.173 0.505 0.266 0.791 0.265 6.41-0.055 10.202-7.077 13.306-11.774 3.127-4.75 5.97-9.681 8.514-14.768 0 0.349-0.041 0.703-0.066 1.057-0.086 1.355 1.79 1.709 2.432 0.667zm35.228-183.32-2.553-1.421c-0.799-0.44-2.053 0.101-1.962 1.128 0.58 6.74 1.163 13.481 1.749 20.222-1.476-0.192-3.205 0.309-4.626 0.384-3.109 0.157-6.299-0.03-9.211-1.208-5.946-2.401-9.404-8.696-10.379-14.783-0.976-6.087 0.536-13.417 4.09-18.488 3.453-4.924 9.348-6.274 14.939-7.25 3.334 6.866 5.997 14.038 7.953 21.416zm-83.606-74.925c0.203 0.0638 0.417 0.0811 0.627 0.0506 18.073-2.5239 36.469 1.0881 52.245 10.258-2.821 0.5662-6.031-0.1214-8.827 0.3842-0.219 0.0619-0.418 0.1798-0.577 0.342-0.16 0.1622-0.274 0.3632-0.332 0.5831-0.058 0.22-0.058 0.4512 0 0.6711 0.059 0.2199 0.173 0.4207 0.333 0.5828 8.143 6.6166 15.376 14.28 21.512 22.791-13.094 8.144-32.356 10.617-46.098 2.927-6.29-3.506-11.394-8.805-14.661-15.223-1.718-3.5402-2.873-7.327-3.423-11.224-0.566-3.6249-1.521-8.2964-0.799-12.144zm37.266 266.76c-1.674 2.674-3.433 5.298-5.289 7.846-1.713 2.346-3.741 5.102-6.693 5.698-0.292-2.62-0.356-5.261-0.192-7.892 0.07-1.259-1.876-1.83-2.432-0.662-0.779 1.713-1.955 3.215-3.432 4.381-1.476 1.166-3.21 1.962-5.057 2.323l-3.427-11.982c-0.673-2.346-1.34-4.697-2.023-7.043-0.374-1.284-0.667-2.654-1.476-3.746-1.982-2.674-5.824-2.194-8.761-2.26l-13.175-0.288c-2.022-0.04-4.045-0.096-6.067-0.131-1.39 0-3.033-0.172-4.302 0.596-2.67 1.628-1.729 5.698-1.487 8.231 0.675 6.908 2.144 13.716 4.379 20.288-2.965-2.299-5.306-5.304-6.81-8.741-0.466-1.047-2.129-0.713-2.382 0.308-0.674 2.649-1.329 5.3-1.966 7.953-8.971-5.756-15.739-14.368-19.212-24.444-0.323-0.941-1.896-1.421-2.386-0.309-0.455 1.032-0.88 2.073-1.274 3.125-3.172-6.854-5.111-14.213-5.728-21.739-0.03-0.358-0.199-0.69-0.472-0.924-0.272-0.233-0.626-0.35-0.984-0.325-0.566-0.536-1.517-0.632-1.952 0.258-1.092 2.244-1.978 4.582-2.649 6.987-1.823-5.559-3.126-11.274-3.893-17.073-0.013-0.308-0.134-0.601-0.342-0.829-0.207-0.227-0.488-0.375-0.793-0.416-0.306-0.042-0.616 0.025-0.877 0.189-0.26 0.164-0.455 0.414-0.551 0.707-0.141 0.349-0.283 0.697-0.429 1.046-4.034-14.612-4.957-29.908-2.71-44.899 0.212-1.4-1.552-2.346-2.387-1.011-2.405 3.868-4.306 8.027-5.657 12.376-1.845-12.924-2.655-25.976-2.421-39.029 0.025-1.345-1.745-1.699-2.427-0.658l-1.567 2.392c-0.813-11.74 0.432-23.532 3.68-34.844 0.44-1.516-1.542-2.113-2.381-1.011l-8.595 11.375c1.317-18.932 7.162-37.27 17.043-53.473 0.799-1.315-0.971-2.528-2.053-1.583l-5.814 5.147c4.832-18.772 14.952-35.763 29.156-48.954 1.153-1.071-0.308-2.639-1.577-2.047l-8.509 3.948c10.755-13.563 24.981-23.961 41.168-30.091 1.279-0.5056 1.229-2.6593-0.349-2.5632l-3.24 0.187c10.079-3.9599 21.033-5.1555 31.729-3.4631 0.079 0.0072 0.158 0.0072 0.238 0-0.921 3.3671-0.081 7.3509 0.328 10.667 0.531 4.3074 1.441 8.539 3.226 12.513 3.178 6.9651 8.387 12.807 14.944 16.759 7.295 4.419 15.516 5.663 23.939 5.228 8.862-0.46 17.76-2.7 25.252-7.584 3.243 4.659 6.15 9.541 8.701 14.611-5.622 1.011-11.375 2.528-15.045 7.245-4.045 5.192-5.749 12.988-4.975 19.434 0.703 5.854 3.539 11.911 8.458 15.354 5.152 3.599 11.724 3.372 17.695 2.234l0.864 10.021c-0.111-0.395-0.222-0.784-0.313-1.183-0.374-1.638-2.887-0.946-2.528 0.692 0.241 1.091 0.558 2.164 0.95 3.211 1.739 10.72 2.049 21.624 0.921 32.427-1.78-2.06-3.561-4.119-5.344-6.178-0.946-1.092-2.361 0.126-2.179 1.274 3.893 24.934-0.101 50.152-6.502 74.317l-2.472-5.222c-0.591-1.244-2.376-0.531-2.432 0.662-0.82 16.11-5.281 31.824-13.048 45.961 0.05-0.743 0.096-1.517 0.141-2.235 0.081-1.243-1.896-1.84-2.432-0.657-2.711 6.046-5.833 11.898-9.342 17.518z" fill="#143349"/>
 <path d="m342.22 211.79c2.427-1.603 4.698-3.429 6.785-5.455 1.203-1.173-0.642-3.033-1.845-1.845-12.068 11.774-29.803 14.894-45.764 17.801-12.356 2.249-25.349 3.64-37.771 1.724-0.276-0.176-0.585-0.295-0.908-0.349-0.323-0.055-0.653-0.045-0.972 0.03-5.781-1.019-11.379-2.894-16.608-5.561-1.491-0.769-2.811 1.481-1.32 2.255 2.234 1.156 4.539 2.169 6.901 3.033-1.066 2.351-0.591 6.112-0.212 8.281 0.46 2.629 1.946 5.309 4.671 6.067s5.632-0.602 7.326-2.74c1.866-2.351 2.123-5.374 2.083-8.276 12.022 1.623 24.5 0.369 36.492-1.77 8.857-1.577 18.2-3.251 26.921-6.299-0.233 1.972 0.571 4.626 1.082 5.768 1.304 2.902 4.221 5.203 7.523 4.763 3.154-0.425 5.389-3.125 6.173-6.067 0.413-1.908 0.547-3.867 0.399-5.814-0.066-1.982 0.162-3.969-0.956-5.546zm-82.912 19.95c-0.875 1.572-2.796 2.487-3.954 0.712-1.425-2.179-0.556-5.343-1.041-7.866 1.926 0.571 3.868 1.041 5.829 1.431 0.015 1.875 0.111 4.034-0.829 5.723h-5e-3zm78.868-8.458c-1.224 2.199-3.423 2.285-4.919 0.278-1.123-1.517-1.739-4.07-1.805-5.931-7e-3 -0.078-0.018-0.156-0.035-0.232 2.587-1.036 5.104-2.242 7.532-3.61-0.515 3.013 0.825 6.658-0.753 9.495h-0.02z" fill="#143349"/>
 <path d="m244.26 167.99c2.103-3.898-0.718-8.787-5.056-9.252-1.045-0.096-2.097 0.072-3.061 0.488-0.963 0.416-1.807 1.067-2.454 1.893-1.057 1.32-1.866 3.569-0.91 5.096 0.067 1.026 0.432 2.01 1.051 2.831 2.695 3.696 8.347 2.796 10.43-1.056zm-3.928-2.023c-0.698 1.295-2.654 1.603-3.423 0.213-0.168-0.313-0.268-0.657-0.293-1.011 0.354-0.84 0.743-1.648 1.638-1.886 1.461-0.384 2.776 1.4 2.078 2.695v-0.011z" fill="#143349"/>
 <path d="m346.38 165.19c2.022 0.258 4.09-0.207 5.515-1.724 2.473-2.634 2.083-7.356-1.178-9.161-2.204-1.218-5.95-0.657-6.951 1.593-0.391 0.369-0.731 0.789-1.011 1.249-0.844 1.349-1.492 3.417-1.122 5.015 0.5 2.133 2.851 2.785 4.747 3.028zm-0.147-6.385c0.03-0.132 0.076-0.344 0.142-0.592 0.334-0.063 0.671-0.105 1.011-0.126 0.662 0 1.274 0.071 1.517 0.753 0.086 0.291 0.089 0.6 6e-3 0.892-0.082 0.292-0.246 0.554-0.472 0.756-0.455 0.354-1.719 0.359-2.462 0.096 0.025-0.6 0.111-1.196 0.258-1.779z" fill="#143349"/>
 <path d="m313.87 141.27c14.267 0.637 7.74-24.748-5.359-23.484-1.26-0.077-2.501 0.34-3.458 1.163-2.629 2.23-3.089 6.572-2.604 9.752 0.885 5.703 5.122 12.286 11.421 12.569zm-9.318-18.903c0.759-1.977 2.023-2.842 3.494-3.089 4.55 0.48 8.316 2.229 10.571 6.708 2.346 4.652 3.317 13.317-4.014 13.676-5.056 0.248-8.544-4.474-10-8.792-0.999-2.743-1.016-5.748-0.051-8.503z" fill="#143349"/>
 <path d="m289.28 107.7c1.573 0.228 3.726-0.131 4.829-1.39 1.365-1.562 1.188-4.616 0.92-6.5065-0.253-1.7897-1.178-3.4581-2.922-4.1709-0.77-0.3115-1.617-0.3803-2.427-0.1972-0.875 0.0703-1.715 0.3725-2.434 0.8754-0.719 0.503-1.29 1.1886-1.656 1.9861-1.694 3.3721-0.531 8.7971 3.69 9.4031zm-2.77-7.9875c0.261-0.8279 0.733-1.5736 1.37-2.1638 0.073 0.0275 0.154 0.0275 0.228 0 0.935-0.364 1.986-0.8443 3.003-0.5612 1.744 0.5056 2.28 2.1891 2.381 3.7865 0.114 1.058 0.078 2.127-0.106 3.175-0.455 1.856-2.528 2.664-4.338 2.225-2.589-0.627-3.18-4.237-2.538-6.4514v-0.0101z" fill="#143349"/>
 <path d="m287.25 174.07c5.369-1.436 8.089-8.448 8.089-13.458 0-2.366-0.415-5.526-2.022-7.407-1.355-1.597-3.276-1.516-5.015-0.849-4.171 0.859-6.805 6.355-7.538 10.303-0.809 4.404-0.258 13.206 6.486 11.411zm-4.677-12.371c0.9-3.428 2.882-6.886 6.153-8.049 2.073-0.192 3.595 0.319 4.404 2.998 0.49 1.66 0.677 3.395 0.551 5.121-0.258 3.726-2.124 8.342-5.561 10.248-6.79 3.797-6.477-6.764-5.547-10.318z" fill="#143349"/>
 <path d="m320.09 152.86c-4.813 0.097-6.598 7.655-5.976 11.8 0.743 4.955 4.702 14.434 10.981 13.934 7.184-0.577 7.214-9.778 5.627-14.849-1.178-3.796-5.637-11.987-10.632-10.885zm8.852 10.926c1.355 4.014 2.23 12.027-3.594 12.998-4.591 0.768-7.791-6.249-8.923-9.768-1.087-3.382-1.224-9.853 1.946-12.194 0.057 1e-3 0.113-7e-3 0.167-0.025 5.222-1.906 9.024 4.899 10.404 8.989z" fill="#143349"/>
</svg>
