<?xml version="1.0" encoding="UTF-8"?>
<svg width="600" height="400" viewBox="0 0 600 400" xmlns="http://www.w3.org/2000/svg">
 <path d="m225.74 104.13c-7.108-16.783 1.521-38.691 18.014-45.734 16.493-7.0432 37.776 2.0904 44.43 19.068 2.186 5.5783 3.023 11.87 6.649 16.599 6.658 8.6866 19.882 8.3986 29.791 4.0388 9.911-4.36 18.37-11.822 28.533-15.522 10.162-3.6996 23.698-2.059 28.608 7.771 4.629 9.2683-0.408 21.554 4.892 30.439 5.312 8.901 17.82 9.339 27.726 6.884 9.906-2.453 20.21-6.736 29.927-3.59 18.276 5.919 19.999 32.063 14.231 50.775-2.493 8.092-5.734 16.699-3.252 24.795 2.242 7.316 8.622 12.341 13.124 18.47 8.202 11.172 9.928 26.97 4.338 39.721-5.588 12.75-18.265 21.934-31.871 23.09-9.261 0.788-19.107-1.786-27.581 2.118-13.883 6.398-15.775 25.159-20.385 40.011-7.462 24.03-32.794 44.685-55.927 36.021-16.695-6.251-28.458-25.892-46.226-25.331-22.927 0.723-37.632 35.283-59.893 29.62-23.05-5.863-18.263-44.88-37.831-58.66-9.7-6.83-22.946-5.493-33.45-10.937-12.489-6.474-18.784-21.572-19.288-35.89-0.503-14.32 3.71-28.304 7.202-42.18 1.298-5.164 2.502-10.628 1.1-15.762-2.019-7.388-8.777-12.136-13.801-17.827-10.247-11.608-13.586-29.144-8.348-43.84 5.238-14.697 18.824-25.912 33.967-28.039 11.677-1.64 23.531 1.754 35.284 0.867 11.755-0.886 24.813-8.675 24.965-20.737" clip-rule="evenodd" fill="#173952" fill-rule="evenodd"/>
 <path d="m186.45 130.9c0.979-0.28 1.696 0.665 1.593 1.489 0.189 0.189 0.333 0.418 0.421 0.67 2.999 8.519 6.387 16.885 10.164 25.097 3.758-10 7.571-19.998 11.722-29.838 0.79-1.875 1.708-3.132 3.79-3.519 2.696-0.503 5.601-0.441 8.337-0.56 4.454-0.193 8.908-0.196 13.368-0.085-3.041-2.631-6.173-5.168-9.394-7.578-2.01-1.503-4.065-2.98-6.123-4.456-1.215-0.866-2.521-1.645-2.564-3.294-0.049-1.962 1.216-4.279 1.84-6.112 0.893-2.624 1.81-5.2386 2.753-7.8454 1.393-3.8483 2.767-7.7308 4.395-11.502l-13.768 10.102c-2.555 1.8787-5.117 3.7534-7.685 5.624-1.714 1.2488-3.936 3.7268-6.234 3.7018-2.297-0.024-4.674-2.449-6.479-3.637l-7.87-5.1747c-3.905-2.5647-7.812-5.1288-11.72-7.6924 1.823 5.289 3.645 10.579 5.464 15.87 1.573 4.576 3.841 10.397 2.4 15.262l-13.746 19.135c-0.656 0.67-1.379 1.27-2.159 1.79 7.146-2.569 14.232-5.382 21.495-7.448z" fill="#FEF58A"/>
 <path d="m192.08 94.812 3.484 2.3036c1.048 0.6885 2.396 1.9954 3.632 1.9478 1.235-0.0476 2.945-1.8111 3.982-2.5731l3.41-2.5093 1.516-1.1112c-6.202-1.2856-12.364-3.2115-18.453-4.8287-3.487-0.9246-6.971-1.8502-10.454-2.777-0.86-0.2304-1.717-0.424-2.575-0.5984 2.82 1.8573 5.64 3.7067 8.462 5.5481l6.996 4.5982z" fill="#FBF6BC"/>
 <path d="m223.3 101.56c-0.6 1.754-2.173 4.592-2.135 6.404 0.032 1.704 3.37 3.274 4.831 4.36 1.727 1.286 3.415 2.621 5.109 3.953 3.291 2.625 6.512 5.332 9.661 8.12 7.132 3.356 12.806 8.9 18.061 14.747 11.263 12.522 20.874 26.691 27.672 42.142 3.341 7.53 5.959 15.36 7.817 23.386 0.663 2.915 1.305 5.931 1.756 8.974 0.334-1.829 0.625-3.664 0.843-5.521 0.658-5.764 0.894-11.569 0.707-17.367-0.322-10.667-1.96-21.261-4.555-31.616-2.77-11.19-6.307-22.496-12.302-32.425-6.387-10.608-15.112-19.618-24.543-27.556-7.892-6.6689-16.628-12.271-25.981-16.662-0.04 0.0755-0.084 0.1482-0.133 0.2176-1.411 4.1933-3.073 8.3073-4.57 12.47-0.763 2.1177-1.509 4.2417-2.238 6.3724z" fill="#FBF6BC"/>
 <path d="m276.77 169.55c-5.009-8.768-10.834-17.045-17.396-24.72-5.637-6.619-11.69-13.189-19.316-17.473-5.195-0.174-10.395-0.125-15.583 0.089-2.512 0.104-5.026 0.238-7.533 0.423l-0.18 0.012c7.226 3.769 13.879 9.342 19.851 14.65 6.373 5.661 12.327 11.775 18.211 17.94 6.321 6.624 12.546 13.353 18.209 20.559 8.846 11.255 16.427 23.886 20.126 37.758-0.374-7.356-2.311-14.784-4.406-21.668-2.96-9.606-6.979-18.853-11.983-27.57z" fill="#FBF6BC"/>
 <path d="m168.75 140.81c3.636 0.345 7.24 0.98 10.776 1.898 3.028 0.744 6.832 1.383 10.076 2.782-1.483-3.71-2.897-7.44-4.243-11.191-5.318 2.56-10.955 4.601-16.609 6.511z" fill="#FBF6BC"/>
 <path d="m232.59 143.2c-6-5.238-12.417-9.498-18.971-13.91-0.167 0.276-0.312 0.564-0.434 0.863-0.46 1.115-0.903 2.238-1.354 3.355-3.827 9.502-7.537 19.048-11.133 28.637 3.642 2.038 7.742 3.069 11.658 4.487 4.382 1.587 8.679 3.421 12.881 5.432 8.739 4.189 17.051 9.222 25.058 14.668 14.11 9.596 29.125 20.128 39.737 33.829-1.811-6.896-4.467-13.542-7.908-19.786-8.361-15.306-20.345-28.207-32.289-40.767-5.544-5.813-11.204-11.544-17.245-16.808z" fill="#FBF6BC"/>
 <path d="m159.55 144.29c0.49 0.011 1.305-0.027 1.982-0.075 5.53-0.411 10.855 0.224 16.244 1.485 4.789 1.117 9.302 2.324 13.703 4.371 1.856 4.449 3.812 8.856 5.868 13.222 0.093 0.22 0.242 0.411 0.433 0.555 0.19 0.144 0.416 0.235 0.653 0.264 3.008 2.449 6.741 3.49 10.418 4.772 4.572 1.602 9.055 3.448 13.429 5.53 8.444 4.075 16.579 8.763 24.338 14.026 8.078 5.424 15.954 11.23 23.496 17.385 8.141 6.647 15.755 13.963 21.493 22.834 0.685 1.062 1.961 0.926 2.667 0.263 0.198 0.067 0.408 0.089 0.616 0.064 0.207-0.025 0.406-0.096 0.583-0.208 0.176-0.112 0.326-0.261 0.437-0.438s0.182-0.376 0.206-0.584c0.035-0.183 0.062-0.367 0.094-0.549 0.086-0.121 0.157-0.251 0.213-0.389 3.883-9.981 4.836-21.486 4.822-32.113-0.017-10.957-1.475-21.892-3.889-32.591-2.6-11.489-6.028-23.2-11.609-33.631-5.986-11.185-14.62-20.743-24.117-29.073-9.497-8.3294-20.493-16.95-32.827-20.517-0.104-0.0293-0.211-0.0443-0.319-0.0444-0.22-0.1004-0.462-0.1433-0.704-0.125-0.241 0.0184-0.474 0.0975-0.677 0.2301l-13.664 10.004-2.162 1.5869c-7.018-2.5462-14.512-4.178-21.706-6.1128-3.613-0.9849-7.232-1.9812-10.875-2.9333-2.913-0.7685-6.206-1.7859-9.218-1.1046-0.205 0.0469-0.397 0.1399-0.561 0.272s-0.295 0.2998-0.384 0.4904c-0.173 0.1923-0.293 0.4266-0.347 0.6796s-0.041 0.5158 0.038 0.7621c2.211 6.4656 4.413 12.931 6.606 19.396 1.734 5.087 4.475 11.179 1.129 16.186l-17.49 23.61c-0.115 0.934 0.194 2.471 1.081 2.499zm19.979-1.584c-3.536-0.919-7.139-1.554-10.776-1.899 5.646-1.905 11.292-3.951 16.609-6.511 1.352 3.756 2.766 7.486 4.243 11.192-3.238-1.392-7.048-2.039-10.076-2.782zm102.59 58.058c3.441 6.245 6.097 12.891 7.908 19.787-10.604-13.706-25.627-24.233-39.737-33.83-8.007-5.445-16.322-10.476-25.058-14.668-4.205-2.009-8.499-3.845-12.881-5.431-3.917-1.419-8.016-2.45-11.658-4.487 3.599-9.584 7.31-19.13 11.133-28.638 0.451-1.116 0.894-2.24 1.354-3.354 0.121-0.299 0.267-0.588 0.434-0.863 6.554 4.412 12.971 8.671 18.971 13.91 6.051 5.28 11.703 10.997 17.237 16.812 11.948 12.55 23.936 25.457 32.297 40.762zm11.035 18.02c-3.699-13.873-11.277-26.499-20.126-37.759-5.678-7.198-11.888-13.935-18.209-20.559-5.884-6.165-11.838-12.279-18.203-17.945-5.97-5.305-12.625-10.88-19.85-14.65l0.179-0.012c2.511-0.186 5.021-0.319 7.534-0.423 5.199-0.22 10.388-0.263 15.58-0.088 7.629 4.283 13.682 10.853 19.319 17.472 6.562 7.676 12.386 15.952 17.395 24.72 5.005 8.717 9.024 17.964 11.984 27.57 2.086 6.889 4.009 14.325 4.397 21.674zm-63.048-136.06c0.05-0.0694 0.094-0.1421 0.134-0.2176 9.353 4.3907 18.088 9.9926 25.981 16.662 9.43 7.9375 18.156 16.948 24.543 27.556 5.984 9.935 9.521 21.241 12.311 32.442 2.576 10.346 4.214 20.941 4.547 31.601 0.187 5.799-0.049 11.603-0.707 17.367-0.218 1.857-0.509 3.692-0.842 5.521-0.451-3.042-1.093-6.059-1.757-8.974-1.858-8.026-4.475-15.856-7.817-23.386-6.797-15.451-16.402-29.608-27.671-42.142-5.256-5.847-10.944-11.383-18.066-14.756-3.14-2.801-6.36-5.508-9.662-8.12-1.685-1.337-3.381-2.667-5.109-3.952-1.46-1.086-4.798-2.656-4.831-4.361-0.038-1.812 1.535-4.649 2.136-6.404 0.73-2.1313 1.476-4.2553 2.238-6.3718 1.5-4.1574 3.162-8.2713 4.572-12.465zm-50.904 2.5372c3.484 0.9336 6.969 1.8593 10.454 2.777 6.09 1.6172 12.251 3.5431 18.453 4.8288l-1.515 1.1111-3.408 2.5077c-1.036 0.762-2.726 2.5287-3.982 2.5731-1.257 0.0444-2.584-1.2593-3.632-1.9478l-3.498-2.2954-6.997-4.5982c-2.819-1.8425-5.634-3.6952-8.444-5.5579 0.854 0.1687 1.715 0.368 2.569 0.6016zm0.439 34.372c1.309-1.732 1.961-3.872 1.841-6.039-0.223-3.912-1.846-8.101-3-11.449-1.819-5.2916-3.64-10.582-5.464-15.871 3.91 2.5625 7.817 5.1266 11.721 7.6924l7.864 5.1927c1.805 1.1877 4.189 3.6047 6.48 3.6367 2.29 0.033 4.511-2.448 6.234-3.7015 2.563-1.8733 5.125-3.748 7.684-5.624l13.768-10.102c-1.913 4.4376-3.489 9.0306-5.143 13.547-0.699 1.9258-1.351 3.8547-2.007 5.7897-0.622 1.835-1.904 4.143-1.844 6.125 0.043 1.65 1.349 2.429 2.565 3.295 2.058 1.475 4.099 2.941 6.122 4.456 3.221 2.409 6.344 4.952 9.394 7.578-4.449-0.095-8.913-0.109-13.367 0.085-2.736 0.118-5.641 0.056-8.338 0.559-2.082 0.388-3 1.645-3.789 3.52-4.152 9.84-7.956 19.832-11.722 29.838-3.759-8.21-7.147-16.576-10.164-25.098-0.089-0.252-0.233-0.48-0.421-0.67 0.104-0.821-0.614-1.769-1.594-1.488-7.262 2.066-13.438 4.55-20.575 7.103l13.755-18.375z" fill="#143349"/>
 <path d="m411.19 127.9c-0.98-0.28-1.696 0.664-1.594 1.488-0.188 0.19-0.332 0.419-0.421 0.67-2.998 8.52-6.386 16.886-10.164 25.098-3.757-10-7.57-19.998-11.722-29.838-0.789-1.875-1.707-3.132-3.789-3.52-2.697-0.502-5.602-0.441-8.337-0.559-4.455-0.194-8.909-0.197-13.368-0.085 3.041-2.631 6.173-5.169 9.394-7.578 2.009-1.503 4.065-2.98 6.123-4.456 1.215-0.866 2.521-1.645 2.564-3.295 0.048-1.962-1.217-4.279-1.84-6.1114-0.893-2.6234-1.811-5.2385-2.754-7.8452-1.393-3.8483-2.766-7.7308-4.394-11.502l13.767 10.102c2.556 1.8788 5.118 3.7535 7.685 5.6241 1.715 1.2485 3.937 3.7264 6.234 3.7019 2.297-0.0246 4.675-2.4492 6.48-3.6371l7.869-5.1747c3.906-2.5647 7.813-5.1289 11.72-7.6925-1.823 5.2891-3.644 10.579-5.464 15.87-1.572 4.5749-3.841 10.396-2.4 15.262l13.747 19.134c0.655 0.671 1.379 1.271 2.158 1.791-7.146-2.57-14.232-5.382-21.494-7.448z" fill="#FEF58A"/>
 <path d="m405.56 91.812-3.484 2.3037c-1.048 0.6885-2.396 1.9954-3.632 1.9478s-2.946-1.8112-3.982-2.5732l-3.411-2.5093-1.516-1.1111c6.203-1.2856 12.364-3.2115 18.454-4.8288 3.486-0.9245 6.971-1.8502 10.454-2.7769 0.859-0.2304 1.717-0.424 2.575-0.5984-2.82 1.8573-5.641 3.7066-8.462 5.5481l-6.996 4.5981z" fill="#FBF6BC"/>
 <path d="m374.34 98.564c0.601 1.7547 2.174 4.5917 2.136 6.4037-0.033 1.705-3.371 3.275-4.831 4.361-1.728 1.285-3.416 2.621-5.109 3.953-3.292 2.625-6.512 5.331-9.662 8.12-7.131 3.356-12.805 8.9-18.061 14.747-11.263 12.522-20.874 26.691-27.671 42.142-3.342 7.529-5.959 15.36-7.817 23.385-0.664 2.916-1.305 5.932-1.757 8.974-0.333-1.828-0.624-3.663-0.842-5.52-0.658-5.764-0.894-11.569-0.707-17.367 0.321-10.667 1.96-21.262 4.555-31.616 2.77-11.19 6.306-22.496 12.301-32.425 6.387-10.608 15.113-19.618 24.544-27.556 7.892-6.6689 16.627-12.271 25.981-16.662 0.039 0.0756 0.084 0.1483 0.133 0.2177 1.411 4.1933 3.073 8.3072 4.569 12.47 0.764 2.1176 1.51 4.2416 2.238 6.3719z" fill="#FBF6BC"/>
 <path d="m320.87 166.55c5.009-8.768 10.833-17.045 17.395-24.72 5.637-6.62 11.691-13.189 19.316-17.474 5.195-0.173 10.395-0.124 15.583 0.09 2.513 0.103 5.026 0.238 7.534 0.423l0.179 0.012c-7.225 3.769-13.878 9.342-19.85 14.65-6.374 5.661-12.327 11.775-18.211 17.939-6.321 6.625-12.546 13.354-18.209 20.56-8.846 11.254-16.428 23.886-20.126 37.758 0.374-7.356 2.311-14.784 4.405-21.668 2.96-9.606 6.979-18.853 11.984-27.57z" fill="#FBF6BC"/>
 <path d="m428.89 137.81c-3.637 0.345-7.24 0.979-10.776 1.898-3.028 0.744-6.833 1.382-10.076 2.782 1.482-3.71 2.897-7.441 4.243-11.191 5.317 2.56 10.954 4.601 16.609 6.511z" fill="#FBF6BC"/>
 <path d="m365.05 140.2c6-5.238 12.416-9.498 18.97-13.91 0.168 0.276 0.313 0.564 0.434 0.863 0.46 1.114 0.904 2.238 1.355 3.354 3.826 9.503 7.537 19.048 11.133 28.638-3.642 2.037-7.742 3.068-11.658 4.487-4.383 1.587-8.68 3.421-12.881 5.432-8.739 4.189-17.052 9.222-25.059 14.667-14.109 9.597-29.124 20.129-39.736 33.83 1.811-6.896 4.467-13.542 7.908-19.787 8.361-15.305 20.345-28.206 32.288-40.766 5.544-5.814 11.205-11.545 17.246-16.808z" fill="#FBF6BC"/>
 <path d="m438.09 141.29c-0.489 0.01-1.305-0.027-1.981-0.075-5.531-0.411-10.856 0.224-16.245 1.485-4.788 1.116-9.301 2.323-13.703 4.371-1.855 4.449-3.811 8.856-5.868 13.221-0.092 0.221-0.241 0.412-0.432 0.556s-0.416 0.235-0.653 0.264c-3.008 2.448-6.741 3.49-10.419 4.772-4.572 1.602-9.054 3.448-13.428 5.53-8.445 4.075-16.579 8.763-24.338 14.026-8.078 5.424-15.954 11.23-23.496 17.385-8.141 6.647-15.755 13.963-21.493 22.834-0.685 1.061-1.962 0.926-2.667 0.263-0.198 0.067-0.409 0.088-0.616 0.063-0.207-0.024-0.407-0.095-0.583-0.207-0.177-0.112-0.326-0.262-0.437-0.438-0.111-0.177-0.182-0.376-0.206-0.584-0.035-0.184-0.062-0.367-0.094-0.549-0.086-0.121-0.157-0.252-0.213-0.389-3.883-9.981-4.836-21.486-4.823-32.114 0.017-10.956 1.475-21.891 3.889-32.59 2.6-11.489 6.029-23.2 11.609-33.631 5.986-11.186 14.621-20.743 24.118-29.073 9.497-8.3293 20.493-16.95 32.827-20.517 0.103-0.0293 0.21-0.0442 0.318-0.0444 0.221-0.1003 0.463-0.1433 0.704-0.1249 0.242 0.0183 0.475 0.0975 0.678 0.23l13.664 10.004 2.162 1.5869c7.017-2.5462 14.512-4.178 21.706-6.1128 3.612-0.9849 7.232-1.9812 10.875-2.9332 2.913-0.7686 6.206-1.786 9.218-1.1047 0.205 0.0469 0.397 0.14 0.56 0.2721 0.164 0.1321 0.296 0.2998 0.385 0.4903 0.173 0.1923 0.293 0.4267 0.347 0.6796 0.054 0.253 0.041 0.5158-0.038 0.7622-2.211 6.4655-4.413 12.931-6.606 19.397-1.735 5.0868-4.476 11.179-1.13 16.186l17.491 23.609c0.115 0.934-0.194 2.472-1.082 2.5zm-19.979-1.585c3.536-0.918 7.14-1.553 10.777-1.898-5.647-1.905-11.292-3.951-16.61-6.511-1.351 3.755-2.765 7.486-4.243 11.191 3.239-1.391 7.048-2.038 10.076-2.782zm-102.59 58.059c-3.441 6.245-6.097 12.891-7.908 19.787 10.604-13.707 25.627-24.233 39.737-33.83 8.006-5.445 16.322-10.477 25.058-14.668 4.204-2.009 8.498-3.845 12.881-5.432 3.916-1.418 8.016-2.449 11.658-4.486-3.599-9.584-7.31-19.13-11.133-28.638-0.451-1.117-0.894-2.24-1.355-3.354-0.121-0.299-0.266-0.588-0.434-0.863-6.554 4.412-12.97 8.671-18.97 13.909-6.051 5.281-11.703 10.998-17.237 16.813-11.948 12.549-23.936 25.457-32.297 40.762zm-11.035 18.019c3.698-13.872 11.277-26.498 20.126-37.758 5.677-7.198 11.888-13.935 18.209-20.559 5.884-6.165 11.837-12.279 18.202-17.945 5.97-5.305 12.625-10.881 19.851-14.65l-0.18-0.012c-2.51-0.186-5.021-0.319-7.533-0.423-5.2-0.221-10.388-0.263-15.581-0.088-7.628 4.283-13.681 10.852-19.318 17.472-6.562 7.675-12.387 15.952-17.396 24.72-5.004 8.717-9.023 17.964-11.983 27.57-2.086 6.889-4.009 14.325-4.397 21.673zm63.047-136.06c-0.049-0.0694-0.094-0.1421-0.133-0.2177-9.353 4.3908-18.089 9.9927-25.981 16.662-9.431 7.9378-18.156 16.948-24.544 27.556-5.983 9.936-9.52 21.242-12.311 32.442-2.575 10.347-4.214 20.942-4.547 31.602-0.187 5.798 0.05 11.603 0.707 17.367 0.218 1.857 0.51 3.692 0.843 5.521 0.451-3.043 1.093-6.059 1.756-8.975 1.859-8.025 4.476-15.856 7.817-23.385 6.798-15.451 16.402-29.609 27.672-42.142 5.255-5.847 10.944-11.383 18.066-14.756 3.139-2.801 6.36-5.508 9.661-8.12 1.685-1.337 3.382-2.667 5.109-3.953 1.461-1.086 4.799-2.655 4.832-4.36 0.037-1.812-1.536-4.65-2.136-6.4042-0.731-2.1314-1.477-4.2553-2.238-6.3719-1.5-4.1573-3.162-8.2713-4.573-12.465zm50.904 2.5372c-3.484 0.9336-6.968 1.8592-10.454 2.777-6.089 1.6172-12.25 3.5431-18.453 4.8287l1.516 1.1112 3.408 2.5076c1.036 0.762 2.725 2.5287 3.982 2.5731 1.256 0.0445 2.584-1.2592 3.632-1.9478l3.498-2.2953 6.996-4.5982c2.819-1.8426 5.634-3.6952 8.445-5.558-0.855 0.1687-1.716 0.368-2.57 0.6017zm-0.439 34.372c-1.308-1.732-1.96-3.872-1.84-6.039 0.223-3.913 1.846-8.101 2.999-11.45 1.82-5.2913 3.641-10.581 5.464-15.87-3.909 2.5625-7.816 5.1267-11.72 7.6925l-7.865 5.1927c-1.804 1.1879-4.189 3.6047-6.479 3.637s-4.511-2.4483-6.234-3.7018c-2.564-1.8734-5.125-3.748-7.685-5.6241l-13.767-10.102c1.913 4.4375 3.488 9.0305 5.142 13.547 0.7 1.9258 1.352 3.8547 2.008 5.7897 0.622 1.8353 1.903 4.1433 1.843 6.1253-0.042 1.649-1.349 2.429-2.564 3.295-2.058 1.475-4.099 2.941-6.123 4.456-3.221 2.409-6.344 4.951-9.394 7.578 4.45-0.095 8.914-0.109 13.368 0.085 2.736 0.118 5.641 0.056 8.337 0.559 2.082 0.388 3 1.645 3.79 3.52 4.151 9.839 7.955 19.832 11.722 29.838 3.758-8.211 7.146-16.576 10.164-25.098 0.089-0.252 0.232-0.481 0.421-0.67-0.104-0.821 0.614-1.769 1.594-1.488 7.262 2.065 13.437 4.55 20.574 7.103l-13.755-18.375z" fill="#143349"/>
 <path d="m417.39 305.32c0.017-1.019-1.081-1.467-1.85-1.155-0.232-0.133-0.49-0.212-0.757-0.233-9.005-0.691-17.963-1.799-26.873-3.322 8.688-6.218 17.358-12.488 25.788-19.045 1.607-1.248 2.583-2.46 2.419-4.571-0.213-2.735-1.024-5.525-1.618-8.198-0.966-4.353-2.116-8.656-3.378-12.934 3.329 2.256 6.591 4.624 9.752 7.112 1.972 1.552 3.931 3.155 5.888 4.761 1.151 0.95 2.242 2.01 3.846 1.624 1.908-0.461 3.819-2.282 5.428-3.359 2.303-1.542 4.591-3.105 6.865-4.69 3.357-2.342 6.751-4.673 9.972-7.222l-6.194 15.913c-1.154 2.955-2.301 5.914-3.444 8.879-0.762 1.979-2.58 4.767-1.962 6.979 0.618 2.213 3.576 3.882 5.19 5.318l7.035 6.262c3.489 3.109 6.976 6.219 10.464 9.33-5.581-0.392-11.162-0.783-16.744-1.171-4.826-0.334-11.036-1.019-15.363 1.632l-14.924 18.231c-0.478 0.806-0.87 1.66-1.171 2.548 0.632-7.568 1.515-15.14 1.631-22.689z" fill="#FEF58A"/>
 <path d="m450.8 290.54-3.127-2.768c-0.936-0.835-2.547-1.799-2.821-3.005s0.987-3.314 1.454-4.512l1.542-3.944 0.681-1.752c2.847 5.659 6.302 11.112 9.44 16.575 1.795 3.129 3.591 6.255 5.388 9.379 0.445 0.771 0.854 1.549 1.244 2.333-2.524-2.244-5.04-4.489-7.549-6.738l-6.252-5.568z" fill="#FBF6BC"/>
 <path d="m436.19 262.13c-1.54 1.034-3.873 3.288-5.633 3.72-1.655 0.409-4.036-2.408-5.463-3.538-1.689-1.336-3.415-2.621-5.14-3.912-3.388-2.5-6.836-4.91-10.344-7.23-5.087-6.02-11.911-10.066-18.919-13.629-15.011-7.639-31.184-13.255-47.868-15.822-8.138-1.278-16.379-1.78-24.612-1.498-2.988 0.114-6.068 0.275-9.123 0.626 1.68-0.795 3.377-1.551 5.114-2.242 5.398-2.128 10.944-3.858 16.593-5.178 10.386-2.45 21.044-3.61 31.717-3.783 11.526-0.221 23.362 0.269 34.504 3.49 11.9 3.424 22.862 9.52 32.97 16.575 8.484 5.897 16.156 12.885 22.818 20.784-0.063 0.057-0.122 0.119-0.176 0.185-3.685 2.447-7.229 5.118-10.863 7.641-1.848 1.285-3.706 2.556-5.575 3.811z" fill="#FBF6BC"/>
 <path d="m356.69 228.08c9.765 2.569 19.267 6.053 28.379 10.405 7.853 3.732 15.766 7.878 21.878 14.135 1.512 4.973 2.81 10.009 3.947 15.076 0.55 2.453 1.07 4.916 1.541 7.386l0.035 0.176c-5.511-6.004-12.616-10.988-19.288-15.382-7.119-4.691-14.565-8.86-22.043-12.948-8.034-4.39-16.145-8.662-24.571-12.267-13.161-5.631-27.324-9.686-41.681-9.667 7.202-1.544 14.879-1.595 22.07-1.353 10.045 0.372 20.017 1.861 29.733 4.439z" fill="#FBF6BC"/>
 <path d="m412.4 324.98c-1.274-3.424-2.82-6.741-4.623-9.918-1.502-2.733-3.103-6.242-5.295-9.013 3.968 0.472 7.937 0.872 11.908 1.202-1.096 5.799-1.608 11.772-1.99 17.729z" fill="#FBF6BC"/>
 <path d="m393.58 263.93c6.613 4.439 12.388 9.535 18.346 14.723-0.223 0.234-0.464 0.448-0.722 0.643-0.957 0.733-1.927 1.452-2.889 2.177-8.188 6.155-16.448 12.21-24.781 18.165-2.91-2.991-4.967-6.684-7.351-10.099-2.667-3.823-5.55-7.499-8.58-11.037-6.309-7.356-13.322-14.083-20.654-20.408-12.922-11.145-26.98-22.922-42.962-29.627 7.13-0.035 14.237 0.81 21.16 2.518 16.948 4.114 32.511 12.351 47.734 20.637 7.05 3.85 14.051 7.835 20.699 12.308z" fill="#FBF6BC"/>
 <path d="m411.42 334.77c-0.137-0.47-0.312-1.268-0.441-1.933-1.033-5.449-3.025-10.428-5.638-15.307-2.318-4.337-4.652-8.384-7.769-12.105-4.777-0.641-9.54-1.39-14.289-2.246-0.237-0.033-0.461-0.127-0.649-0.274s-0.335-0.341-0.424-0.563c-3.144-2.271-5.115-5.607-7.306-8.828-2.73-4.002-5.674-7.854-8.817-11.54-6.122-7.102-12.755-13.746-19.847-19.878-7.33-6.399-14.977-12.504-22.874-18.196-8.527-6.143-17.565-11.604-27.619-14.851-1.202-0.387-1.402-1.655-0.945-2.508-0.115-0.174-0.19-0.372-0.22-0.578-0.029-0.207-0.013-0.418 0.05-0.617 0.062-0.2 0.168-0.383 0.31-0.536s0.316-0.273 0.51-0.35c0.169-0.081 0.339-0.155 0.506-0.233 0.095-0.114 0.203-0.217 0.321-0.306 8.636-6.334 19.502-10.232 29.771-12.97 10.588-2.819 21.527-4.241 32.486-4.679 11.771-0.462 23.971-0.181 35.49 2.509 12.354 2.888 23.821 8.754 34.325 15.772 10.503 7.017 21.676 15.408 28.314 26.398 0.055 0.092 0.097 0.192 0.125 0.296 0.154 0.187 0.258 0.41 0.303 0.648s0.029 0.483-0.047 0.713l-6.127 15.788-0.973 2.499c4.276 6.12 7.792 12.937 11.522 19.385 1.887 3.234 3.786 6.472 5.648 9.745 1.497 2.615 3.332 5.532 3.453 8.618 8e-3 0.21-0.032 0.42-0.117 0.612-0.086 0.192-0.214 0.363-0.375 0.498-0.141 0.217-0.336 0.393-0.566 0.511-0.231 0.118-0.488 0.173-0.746 0.161-6.818-0.462-13.633-0.916-20.446-1.361-5.362-0.359-11.956-1.429-15.926 3.098l-18.279 23.005c-0.872 0.353-2.437 0.453-2.694-0.397zm-3.64-19.708c1.802 3.177 3.348 6.493 4.623 9.917 0.379-5.947 0.893-11.929 1.99-17.728-3.977-0.334-7.947-0.734-11.908-1.202 2.182 2.768 3.792 6.28 5.295 9.013zm-82.634-84.071c-6.922-1.708-14.029-2.554-21.159-2.518 15.984 6.695 30.04 18.482 42.962 29.627 7.332 6.324 14.344 13.055 20.653 20.408 3.029 3.541 5.914 7.214 8.581 11.036 2.384 3.416 4.44 7.109 7.351 10.1 8.326-5.957 16.586-12.012 24.78-18.166 0.962-0.724 1.933-1.443 2.89-2.176 0.257-0.195 0.498-0.41 0.721-0.643-5.958-5.189-11.733-10.284-18.345-14.724-6.667-4.478-13.652-8.458-20.702-12.298-15.214-8.293-30.784-16.532-47.732-20.646zm-20.261-5.996c14.357-0.018 28.514 4.035 41.681 9.668 8.422 3.621 16.537 7.876 24.571 12.267 7.478 4.088 14.924 8.256 22.045 12.938 6.669 4.393 13.777 9.379 19.288 15.382l-0.034-0.176c-0.47-2.473-0.992-4.933-1.542-7.386-1.133-5.08-2.434-10.102-3.948-15.073-6.111-6.26-14.023-10.406-21.876-14.138-9.112-4.352-18.614-7.836-28.38-10.405-9.716-2.578-19.688-4.066-29.732-4.439-7.195-0.232-14.875-0.165-22.073 1.362zm147.74 25.683c0.055-0.065 0.113-0.127 0.176-0.185-6.662-7.898-14.334-14.886-22.818-20.783-10.108-7.055-21.07-13.151-32.97-16.575-11.145-3.209-22.981-3.699-34.522-3.495-10.661 0.189-21.319 1.349-31.702 3.787-5.649 1.32-11.195 3.05-16.592 5.178-1.738 0.691-3.435 1.447-5.115 2.242 3.056-0.351 6.135-0.512 9.123-0.626 8.233-0.282 16.474 0.219 24.612 1.498 16.684 2.567 32.845 8.18 47.868 15.822 7.008 3.563 13.828 7.624 18.929 13.631 3.518 2.307 6.967 4.718 10.344 7.231 1.727 1.281 3.451 2.575 5.14 3.912 1.427 1.129 3.807 3.947 5.462 3.537 1.761-0.432 4.094-2.686 5.634-3.72 1.869-1.257 3.728-2.527 5.575-3.811 3.628-2.525 7.171-5.195 10.856-7.643zm10.725 49.826c-1.804-3.123-3.6-6.25-5.388-9.378-3.139-5.464-6.593-10.917-9.441-16.575l-0.681 1.752-1.54 3.94c-0.468 1.198-1.737 3.287-1.455 4.513 0.283 1.225 1.886 2.17 2.822 3.004l3.122 2.784 6.253 5.568c2.509 2.247 5.027 4.486 7.554 6.719-0.384-0.782-0.8-1.562-1.246-2.327zm-33.315 8.473c1.334-1.713 3.232-2.896 5.357-3.341 3.837-0.797 8.303-0.314 11.835-0.066 5.582 0.388 11.164 0.778 16.744 1.17-3.487-3.113-6.975-6.223-10.463-9.33l-7.052-6.253c-1.614-1.435-4.566-3.113-5.19-5.317s1.198-4.991 1.962-6.98c1.146-2.961 2.294-5.92 3.444-8.878l6.195-15.913c-3.792 2.996-7.82 5.707-11.755 8.473-1.679 1.174-3.373 2.303-5.073 3.438-1.612 1.076-3.509 2.911-5.439 3.366-1.604 0.386-2.695-0.674-3.846-1.624-1.958-1.606-3.902-3.198-5.889-4.761-3.161-2.488-6.425-4.846-9.751-7.112 1.243 4.273 2.412 8.581 3.378 12.934 0.593 2.673 1.405 5.463 1.617 8.198 0.164 2.111-0.812 3.323-2.419 4.571-8.43 6.557-17.098 12.818-25.787 19.045 8.903 1.506 17.861 2.613 26.873 3.322 0.266 0.021 0.524 0.1 0.756 0.233 0.766-0.313 1.867 0.136 1.85 1.155-0.116 7.549-0.917 14.157-1.536 21.712l14.189-18.042z" fill="#143349"/>
 <path d="m189.12 314.83c-0.109-1.014 0.945-1.558 1.739-1.315 0.219-0.153 0.469-0.256 0.733-0.3 8.907-1.493 17.73-3.396 26.469-5.708-9.208-5.418-18.404-10.889-27.385-16.667-1.712-1.099-2.793-2.219-2.818-4.337-0.033-2.743 0.526-5.594 0.879-8.309 0.573-4.422 1.334-8.81 2.209-13.185-3.114 2.545-6.151 5.195-9.077 7.956-1.826 1.721-3.633 3.493-5.44 5.267-1.062 1.049-2.053 2.202-3.686 1.961-1.941-0.288-4.007-1.932-5.705-2.861-2.432-1.329-4.851-2.682-7.257-4.058-3.552-2.033-7.142-4.051-10.578-6.302l7.592 15.296c1.412 2.84 2.82 5.685 4.222 8.536 0.936 1.903 2.996 4.517 2.578 6.776s-3.215 4.186-4.695 5.76l-6.447 6.865c-3.197 3.408-6.393 6.817-9.589 10.227 5.523-0.889 11.047-1.776 16.572-2.661 4.778-0.764 10.901-2.001 15.447 0.254l16.494 16.824c0.547 0.761 1.015 1.577 1.393 2.434-1.305-7.481-2.861-14.945-3.65-22.453z" fill="#FEF58A"/>
 <path d="m154.52 303.1 2.867-3.037c0.858-0.915 2.377-2.019 2.542-3.244 0.165-1.226-1.279-3.213-1.852-4.365l-1.887-3.79-0.835-1.684c-2.331 5.89-5.285 11.63-7.922 17.352-1.509 3.276-3.019 6.55-4.529 9.822-0.375 0.808-0.713 1.619-1.032 2.435 2.314-2.46 4.62-4.922 6.918-7.385l5.73-6.104z" fill="#FBF6BC"/>
 <path d="m166.53 273.5c1.625 0.892 4.151 2.929 5.943 3.202 1.685 0.26 3.804-2.759 5.124-4.011 1.563-1.482 3.168-2.916 4.771-4.356 3.15-2.792 6.369-5.501 9.657-8.125 4.529-6.451 10.964-11.09 17.626-15.264 14.268-8.949 29.876-15.987 46.264-20.034 7.991-2 16.154-3.236 24.379-3.69 2.987-0.153 6.068-0.268 9.143-0.191-1.744-0.642-3.502-1.244-5.294-1.777-5.566-1.636-11.244-2.865-16.989-3.675-10.563-1.513-21.282-1.716-31.928-0.935-11.499 0.809-23.245 2.354-34.055 6.557-11.546 4.473-21.92 11.524-31.357 19.453-7.924 6.632-14.941 14.277-20.871 22.739 0.068 0.051 0.132 0.108 0.191 0.168 3.89 2.109 7.658 4.452 11.502 6.641 1.956 1.115 3.92 2.215 5.894 3.298z" fill="#FBF6BC"/>
 <path d="m242.68 232.48c-9.497 3.431-18.65 7.749-27.337 12.898-7.488 4.418-14.999 9.254-20.528 16.032-1.062 5.089-1.905 10.22-2.584 15.368-0.329 2.493-0.628 4.992-0.876 7.494l-0.019 0.179c4.953-6.472 11.584-12.071 17.837-17.043 6.671-5.309 13.715-10.125 20.798-14.865 7.611-5.091 15.308-10.069 23.378-14.413 12.605-6.784 26.349-12.087 40.651-13.351-7.312-0.893-14.962-0.259-22.103 0.624-9.971 1.268-19.77 3.642-29.217 7.077z" fill="#FBF6BC"/>
 <path d="m195.84 333.97c0.963-3.524 2.207-6.965 3.718-10.291 1.253-2.856 2.534-6.495 4.469-9.45-3.909 0.824-7.827 1.578-11.753 2.261 1.61 5.678 2.654 11.581 3.566 17.48z" fill="#FBF6BC"/>
 <path d="m209.13 271.49c-6.19 5.013-11.487 10.603-16.957 16.304 0.242 0.212 0.502 0.404 0.775 0.575 1.019 0.645 2.05 1.274 3.073 1.91 8.705 5.399 17.473 10.693 26.303 15.88 2.632-3.239 4.351-7.101 6.42-10.716 2.315-4.045 4.859-7.964 7.561-11.758 5.626-7.891 12.01-15.217 18.748-22.171 11.875-12.255 24.826-25.241 40.144-33.345-7.104 0.601-14.107 2.078-20.849 4.396-16.513 5.612-31.279 15.206-45.701 24.818-6.678 4.465-13.295 9.058-19.517 14.107z" fill="#FBF6BC"/>
 <path d="m197.69 343.63c0.094-0.48 0.198-1.29 0.266-1.965 0.543-5.519 2.083-10.656 4.249-15.749 1.922-4.526 3.885-8.765 6.657-12.75 4.701-1.065 9.378-2.236 14.032-3.513 0.233-0.054 0.447-0.168 0.622-0.331 0.174-0.163 0.302-0.37 0.371-0.598 2.929-2.544 4.595-6.043 6.489-9.446 2.362-4.229 4.95-8.329 7.751-12.281 5.463-7.62 11.477-14.83 17.993-21.572 6.729-7.027 13.8-13.791 21.157-20.165 7.945-6.88 16.458-13.127 26.182-17.258 1.163-0.493 1.249-1.774 0.717-2.583 0.1-0.184 0.157-0.387 0.168-0.596 0.011-0.208-0.025-0.417-0.104-0.61-0.08-0.193-0.202-0.366-0.357-0.505-0.155-0.14-0.34-0.244-0.54-0.304-0.175-0.065-0.351-0.124-0.524-0.186-0.105-0.105-0.222-0.198-0.347-0.277-9.168-5.537-20.339-8.449-30.811-10.259-10.797-1.862-21.82-2.302-32.774-1.759-11.765 0.591-23.891 1.96-35.124 5.669-12.047 3.979-22.944 10.846-32.779 18.773-9.835 7.928-20.213 17.283-25.844 28.821-0.046 0.098-0.079 0.201-0.098 0.307-0.137 0.2-0.22 0.431-0.244 0.672-0.023 0.241 0.015 0.484 0.111 0.707l7.512 15.177 1.193 2.402c-3.712 6.478-6.605 13.581-9.745 20.336-1.59 3.39-3.193 6.785-4.756 10.211-1.256 2.738-2.824 5.808-2.669 8.892 0.011 0.21 0.07 0.415 0.172 0.599s0.245 0.342 0.417 0.463c0.16 0.203 0.37 0.361 0.61 0.458s0.501 0.129 0.757 0.094c6.749-1.069 13.497-2.13 20.243-3.182 5.309-0.836 11.781-2.491 16.139 1.664l20.26 21.281c0.901 0.273 2.468 0.232 2.648-0.637zm1.866-19.955c-1.512 3.326-2.755 6.767-3.719 10.291-0.908-5.889-1.955-11.802-3.566-17.48 3.932-0.687 7.85-1.441 11.754-2.26-1.926 2.951-3.217 6.594-4.469 9.449zm74.795-91.114c6.742-2.319 13.745-3.796 20.85-4.397-15.322 8.095-28.269 21.09-40.144 33.345-6.738 6.954-13.121 14.283-18.749 22.171-2.7 3.797-5.245 7.713-7.56 11.758-2.07 3.615-3.788 7.477-6.42 10.716-8.825-5.189-17.593-10.483-26.304-15.88-1.023-0.636-2.053-1.265-3.072-1.91-0.274-0.17-0.533-0.363-0.776-0.575 5.471-5.7 10.768-11.291 16.957-16.304 6.241-5.055 12.842-9.643 19.521-14.098 14.412-9.618 29.184-19.215 45.697-24.826zm19.645-7.781c-14.301 1.264-28.04 6.564-40.651 13.351-8.065 4.359-15.767 9.322-23.378 14.413-7.083 4.739-14.127 9.556-20.801 14.855-6.25 4.971-12.884 10.571-17.837 17.043l0.018-0.179c0.248-2.505 0.547-5.001 0.876-7.494 0.675-5.16 1.523-10.279 2.586-15.365 5.528-6.78 13.038-11.617 20.527-16.035 8.687-5.149 17.839-9.467 27.337-12.898 9.446-3.435 19.246-5.809 29.217-7.077 7.145-0.874 14.8-1.492 22.106-0.614zm-144.86 38.775c-0.059-0.061-0.123-0.117-0.191-0.169 5.93-8.461 12.947-16.107 20.871-22.738 9.437-7.929 19.811-14.98 31.357-19.453 10.815-4.191 22.56-5.736 34.073-6.565 10.635-0.762 21.354-0.559 31.913 0.941 5.745 0.811 11.423 2.039 16.989 3.676 1.792 0.533 3.55 1.135 5.294 1.776-3.075-0.077-6.156 0.038-9.142 0.192-8.226 0.454-16.389 1.689-24.38 3.69-16.388 4.046-31.983 11.08-46.264 20.033-6.662 4.175-13.091 8.829-17.636 15.267-3.298 2.613-6.517 5.321-9.657 8.126-1.606 1.431-3.207 2.874-4.77 4.355-1.32 1.253-3.439 4.272-5.124 4.012-1.792-0.274-4.318-2.31-5.943-3.203-1.975-1.085-3.939-2.184-5.894-3.297-3.838-2.191-7.606-4.534-11.496-6.643zm-6.231 50.585c1.517-3.273 3.027-6.547 4.529-9.823 2.638-5.722 5.592-11.461 7.922-17.352l0.835 1.685 1.886 3.787c0.573 1.151 2.024 3.119 1.852 4.364-0.172 1.246-1.684 2.33-2.542 3.244l-2.861 3.053-5.731 6.104c-2.298 2.461-4.606 4.917-6.924 7.366 0.313-0.813 0.657-1.627 1.034-2.428zm33.938 5.463c-1.482-1.586-3.478-2.596-5.634-2.849-3.892-0.451-8.297 0.429-11.794 0.991-5.525 0.885-11.049 1.772-16.572 2.661 3.195-3.412 6.391-6.821 9.588-10.227l6.465-6.858c1.48-1.574 4.27-3.509 4.695-5.759 0.424-2.251-1.639-4.864-2.578-6.777-1.406-2.847-2.814-5.692-4.223-8.535l-7.591-15.296c4.044 2.645 8.299 4.985 12.464 7.389 1.778 1.02 3.566 1.993 5.36 2.971 1.702 0.928 3.755 2.586 5.718 2.867 1.633 0.241 2.624-0.912 3.686-1.961 1.807-1.774 3.601-3.534 5.44-5.268 2.926-2.76 5.966-5.401 9.077-7.955-0.856 4.368-1.636 8.763-2.209 13.184-0.353 2.716-0.912 5.567-0.879 8.31 0.025 2.118 1.106 3.238 2.818 4.337 8.981 5.778 18.173 11.24 27.385 16.666-8.734 2.295-17.557 4.198-26.469 5.709-0.264 0.044-0.514 0.147-0.733 0.3-0.791-0.244-1.848 0.301-1.739 1.314 0.789 7.509 2.178 14.019 3.469 21.489l-15.744-16.703z" fill="#143349"/>
</svg>
