<svg width="2577" height="321" viewBox="0 0 2577 321" fill="none" xmlns="http://www.w3.org/2000/svg">
<path d="M922.631 245.045C925.139 242.541 928.541 241.134 932.087 241.134H1259.3C1265.26 241.134 1268.24 248.335 1264.03 252.544L1199.37 317.089C1196.86 319.593 1193.46 321 1189.91 321H862.703C856.742 321 853.758 313.799 857.975 309.59L922.631 245.045Z" fill="#00FFA3"/>
<path d="M922.631 3.91105C925.139 1.40674 928.541 0 932.087 0H1259.3C1265.26 0 1268.24 7.2012 1264.03 11.4105L1199.37 75.955C1196.86 78.4593 1193.46 79.866 1189.91 79.866H862.703C856.742 79.866 853.758 72.6648 857.975 68.4555L922.631 3.91105Z" fill="#00FFA3"/>
<path d="M1199.37 123.71C1196.86 121.206 1193.46 119.799 1189.91 119.799H862.703C856.742 119.799 853.758 127 857.975 131.21L922.631 195.754C925.139 198.258 928.541 199.665 932.087 199.665H1259.3C1265.26 199.665 1268.24 192.464 1264.03 188.255L1199.37 123.71Z" fill="#00FFA3"/>
<path d="M1439.29 175.887H1504.1C1513.2 175.887 1520.59 183.35 1520.59 192.556C1520.59 201.763 1513.2 209.226 1504.1 209.226H1425.92C1424.7 209.226 1423.52 209.667 1422.59 210.469L1398.99 230.89C1395.38 234.016 1397.56 240 1402.32 240H1500.19C1500.23 240 1500.26 239.967 1500.26 239.926C1500.26 239.883 1500.29 239.849 1500.34 239.853C1501.57 239.95 1502.81 240 1504.07 240C1530.03 240 1551.08 218.759 1551.08 192.556C1551.08 167.674 1532.1 147.266 1507.95 145.273C1507.91 145.269 1507.88 145.234 1507.88 145.193C1507.88 145.149 1507.85 145.113 1507.8 145.113H1437.98C1428.87 145.113 1421.49 137.65 1421.49 128.444C1421.49 119.237 1428.87 111.774 1437.98 111.774H1516.05C1517.33 111.774 1518.57 111.285 1519.51 110.405L1541.43 89.9839C1544.86 86.7892 1542.63 81 1537.96 81H1439.29C1439.28 81 1439.28 81.0038 1439.28 81.0084C1439.28 81.0131 1439.27 81.0169 1439.27 81.0168C1438.85 81.0056 1438.43 81 1438.01 81C1412.05 81 1391 102.241 1391 128.444C1391 154.646 1412.05 175.887 1438.01 175.887C1438.43 175.887 1438.85 175.881 1439.27 175.87C1439.27 175.87 1439.28 175.874 1439.28 175.879C1439.28 175.883 1439.28 175.887 1439.29 175.887Z" fill="white"/>
<path d="M1816.79 81C1813.96 81 1811.66 83.3177 1811.66 86.1767V234.823C1811.66 237.682 1813.96 240 1816.79 240H1935.48C1936.89 240 1938.25 239.408 1939.22 238.364L1954.07 222.376C1957.15 219.069 1954.82 213.658 1950.33 213.658H1846.71C1843.87 213.658 1841.58 211.34 1841.58 208.481V86.1767C1841.58 83.3177 1839.28 81 1836.44 81H1816.79Z" fill="white"/>
<path fill-rule="evenodd" clip-rule="evenodd" d="M1626.7 81C1626.69 81 1626.69 81.0063 1626.69 81.014C1626.69 81.0215 1626.68 81.0276 1626.67 81.028C1611.5 81.6875 1599.32 93.939 1598.67 109.196C1598.67 109.204 1598.66 109.21 1598.65 109.21C1598.65 109.21 1598.65 109.212 1598.64 109.214C1598.64 109.217 1598.64 109.22 1598.64 109.224V209.212C1598.64 209.22 1598.65 209.226 1598.65 209.226C1598.66 209.226 1598.67 209.232 1598.67 209.24C1598.65 209.66 1598.64 210.083 1598.64 210.508C1598.64 226.362 1611.08 239.294 1626.67 239.972C1626.68 239.972 1626.69 239.979 1626.69 239.986L1626.69 239.992L1626.69 239.997C1626.69 239.999 1626.7 240 1626.7 240H1734.39C1734.4 240 1734.41 239.994 1734.41 239.986L1734.41 239.978L1734.41 239.974L1734.42 239.972C1750.02 239.294 1762.45 226.362 1762.45 210.508C1762.45 210.083 1762.44 209.66 1762.43 209.24C1762.43 209.232 1762.43 209.226 1762.44 209.226C1762.45 209.226 1762.45 209.22 1762.45 209.212V109.224C1762.45 109.216 1762.45 109.21 1762.44 109.21C1762.43 109.21 1762.43 109.204 1762.43 109.196C1761.77 93.939 1749.59 81.6875 1734.42 81.028C1734.41 81.0276 1734.41 81.0215 1734.41 81.014C1734.41 81.0063 1734.4 81 1734.39 81H1626.7ZM1646.77 109.21L1646.77 109.213L1646.77 109.218C1646.77 109.223 1646.76 109.227 1646.76 109.227C1637.28 109.642 1629.66 117.349 1629.25 126.946C1629.25 126.951 1629.25 126.954 1629.25 126.954C1629.24 126.954 1629.24 126.958 1629.24 126.963V189.859C1629.24 189.864 1629.24 189.868 1629.24 189.868C1629.25 189.868 1629.25 189.872 1629.25 189.877C1629.24 190.141 1629.24 190.407 1629.24 190.674C1629.24 200.647 1637.01 208.782 1646.76 209.208C1646.76 209.208 1646.77 209.212 1646.77 209.217L1646.77 209.222L1646.77 209.225L1646.77 209.226H1714.32L1714.32 209.225L1714.33 209.221L1714.33 209.217C1714.33 209.212 1714.33 209.208 1714.34 209.208C1724.08 208.782 1731.86 200.647 1731.86 190.674C1731.86 190.407 1731.85 190.141 1731.84 189.877L1731.84 189.874L1731.84 189.872L1731.85 189.868C1731.85 189.868 1731.86 189.864 1731.86 189.859V126.963C1731.86 126.958 1731.85 126.954 1731.85 126.954C1731.84 126.954 1731.84 126.951 1731.84 126.946C1731.43 117.349 1723.82 109.642 1714.34 109.227C1714.33 109.227 1714.33 109.223 1714.33 109.218L1714.33 109.214L1714.32 109.211L1714.32 109.21H1646.77Z" fill="white"/>
<path fill-rule="evenodd" clip-rule="evenodd" d="M2126.66 234.823C2126.66 237.682 2128.93 240 2131.74 240H2151.87C2154.68 240 2156.96 237.682 2156.96 234.823V111.788C2156.96 111.78 2156.96 111.774 2156.95 111.774L2156.94 111.773L2156.94 111.771C2156.94 111.768 2156.94 111.764 2156.94 111.76C2156.95 111.34 2156.96 110.917 2156.96 110.492C2156.96 94.6381 2144.64 81.7061 2129.19 81.028C2129.19 81.0276 2129.18 81.0215 2129.18 81.014C2129.18 81.0063 2129.18 81 2129.17 81H2025.78C2025.77 81 2025.77 81.006 2025.77 81.0134C2025.77 81.021 2025.76 81.0271 2025.75 81.0268C2025.34 81.009 2024.92 81 2024.5 81C2008.46 81 1995.46 94.204 1995.46 110.492C1995.46 110.917 1995.47 111.34 1995.49 111.76C1995.49 111.768 1995.48 111.774 1995.47 111.774C1995.47 111.774 1995.46 111.78 1995.46 111.788V234.823C1995.46 237.682 1997.74 240 000.55 240H2020.68C2023.49 240 2025.77 237.682 2025.77 234.823V183.628C2025.77 180.769 2028.04 178.452 2030.86 178.452H2121.57C2124.38 178.452 2126.66 180.769 2126.66 183.628V234.823ZM2025.77 150.194V124.597C2025.77 114.682 2033.68 106.645 2043.45 106.645H2108.98C2118.74 106.645 2126.66 114.682 2126.66 124.597V150.194C2126.66 153.053 2124.38 155.371 2121.57 155.371H2030.86C2028.05 155.371 2025.77 153.053 2025.77 150.194Z" fill="white"/>
<path fill-rule="evenodd" clip-rule="evenodd" d="M2551.54 240C2548.7 240 2546.4 237.682 2546.4 234.823V183.628C2546.4 180.769 2544.1 178.452 2541.27 178.452H2449.55C2446.71 178.452 2444.41 180.769 2444.41 183.628V234.823C2444.41 237.682 2442.11 240 2439.28 240H2418.95C2416.12 240 2413.82 237.682 2413.82 234.823V111.788L2413.82 111.784L2413.82 111.78C2413.82 111.776 2413.83 111.774 2413.83 111.774C2413.84 111.774 2413.84 111.768 2413.84 111.76C2413.83 111.34 2413.82 110.917 2413.82 110.492C2413.82 94.204 2426.94 81 2443.14 81C2443.56 81 2443.98 81.009 2444.4 81.0268C2444.41 81.0271 2444.41 81.021 2444.41 81.0134C2444.41 81.006 2444.42 81 2444.43 81L2548.94 81C2548.95 81 2548.95 81.0063 2548.95 81.014C2548.95 81.0215 2548.96 81.0276 2548.97 81.028C2564.56 81.7061 2577 94.6381 2577 110.492C2577 110.917 2576.99 111.34 2576.97 111.76C2576.97 111.768 2576.98 111.774 2576.99 111.774C2576.99 111.774 2576.99 111.776 2577 111.778C2577 111.781 2577 111.784 2577 111.788V234.823C2577 237.682 2574.7 240 2571.86 240H2551.54ZM2444.41 124.597V150.194C2444.41 153.053 2446.71 155.371 2449.55 155.371H2541.27C2544.1 155.371 2546.4 153.053 2546.4 150.194V124.597C2546.4 114.682 2538.41 106.645 2528.55 106.645H2462.26C2452.4 106.645 2444.41 114.682 2444.41 124.597Z" fill="white"/>
<path d="M2232.73 81C2234.22 81 2235.63 81.6643 2236.6 82.8176L2326.87 190.824C2329.94 194.486 2335.83 192.277 2335.83 187.465V86.1768C2335.83 83.3177 2338.11 81 2340.92 81H2361.05C2363.86 81 2366.14 83.3177 2366.14 86.1767V234.823C2366.14 237.682 2363.86 240 2361.05 240H2336.02C2335.92 240 2335.83 239.913 2335.83 239.807C2335.83 239.76 2335.81 239.715 2335.78 239.679L2243.99 132.427C2240.9 128.824 2235.07 131.049 2235.07 135.832V234.823C2235.07 237.682 2232.8 240 2229.99 240H2209.73C2206.92 240 2204.64 237.682 2204.64 234.823V86.1767C2204.64 83.3177 2206.92 81 2209.73 81H2232.73Z" fill="white"/>
<path d="M0 118H40.0982C48.2849 118 54.1325 119.833 57.6411 123.5C61.2332 127.167 63.0293 132.542 63.0293 139.625C63.0293 145.375 61.8598 149.958 59.5207 153.375C57.1816 156.708 53.4224 158.875 48.2431 159.875V160.375C54.1743 161.458 58.2676 163.75 60.5231 167.25C62.7787 170.75 63.9064 175.458 63.9064 181.375C63.9064 188.375 62.1521 193.917 58.6435 198C55.2185 202 48.9114 204 39.7222 204H0V118ZM36.5896 155.5C41.936 155.5 45.8623 154.375 48.3684 152.125C50.9581 149.875 52.2529 146.417 52.2529 141.75C52.2529 138.25 51.7934 135.542 50.8745 133.625C49.9556 131.708 48.3684 130.292 46.1129 129.375C43.9409 128.458 40.7665 128 36.5896 128H10.7764V155.5H36.5896ZM37.0908 194C41.2677 194 44.4839 193.542 46.7394 192.625C49.0785 191.708 50.7075 190.25 51.6264 188.25C52.6288 186.167 53.1301 183.333 53.1301 179.75C53.1301 174.583 51.9188 170.917 49.4962 168.75C47.0736 166.583 42.9384 165.5 37.0908 165.5H10.7764V194H37.0908Z" fill="#767676"/>
<path d="M173.379 118V166.375C173.379 177.542 172.669 185.75 171.249 191C169.829 196.167 166.864 199.792 162.352 201.875C157.841 203.958 150.574 205 140.549 205C130.525 205 123.257 203.958 118.746 201.875C114.235 199.708 111.227 196.042 109.724 190.875C108.304 185.708 107.593 177.542 107.593 166.375V118H118.245V170.5C118.245 178 118.662 183.333 119.498 186.5C120.333 189.667 122.254 191.875 125.262 193.125C128.269 194.375 133.365 195 140.549 195C147.733 195 152.787 194.375 155.711 193.125C158.719 191.875 160.598 189.708 161.35 186.625C162.185 183.458 162.603 178.083 162.603 170.5V118H173.379Z" fill="#767676"/>
<path d="M220.618 204V118H231.395V204H220.618Z" fill="#767676"/>
<path d="M279.654 204V118H290.431V193.625H330.654V204H279.654Z" fill="#767676"/>
<path d="M388.807 204V128.375H361.49V118H426.775V128.375H399.584V204H388.807Z" fill="#767676"/>
<path d="M549.668 205C538.223 205 530.12 203.875 525.358 201.625C520.597 199.375 517.547 195.458 516.211 189.875C514.958 184.208 514.331 174.583 514.331 161C514.331 147.417 514.958 137.833 516.211 132.25C517.547 126.583 520.597 122.625 525.358 120.375C530.12 118.125 538.223 117 549.668 117C561.029 117 569.09 118.125 573.852 120.375C578.697 122.625 581.746 126.583 582.999 132.25C584.336 137.833 585.004 147.417 585.004 161C585.004 174.583 584.336 184.208 582.999 189.875C581.746 195.458 578.697 199.375 573.852 201.625C569.09 203.875 561.029 205 549.668 205ZM549.668 195C558.189 195 563.953 194.458 566.96 193.375C569.967 192.292 571.931 189.583 572.849 185.25C573.768 180.917 574.228 172.833 574.228 161C574.228 149.167 573.768 141.083 572.849 136.75C571.931 132.417 569.967 129.708 566.96 128.625C563.953 127.542 558.189 127 549.668 127C541.147 127 535.341 127.542 532.25 128.625C529.243 129.708 527.28 132.417 526.361 136.75C525.442 141.083 524.982 149.167 524.982 161C524.982 172.833 525.442 180.917 526.361 185.25C527.28 189.583 529.243 192.292 532.25 193.375C535.341 194.458 541.147 195 549.668 195Z" fill="#767676"/>
<path d="M686.725 204L641.239 138.25H640.737V204H630.337V118H641.364L686.224 182.25H686.725V118H697V204H686.725Z" fill="#767676"/>
</svg>
